<svg xmlns="http://www.w3.org/2000/svg" viewBox="0 0 193.578 92.241">
  <path fill="#f7fefe" stroke="#000" stroke-width=".265" d="M9.114 46.342c.872 2.368 14.096 2.153 21.645 1.397l6.62 15.94c.606 3.167 67.99.501 95.027.99 9.737.523 12.298.47 18.732.004 8.254-20.796 5.732-17.38 20.201-17.805.84-.025 4.044.69 4.37-3.481 1.267-16.396-.987-10.698-24.145-11.416-2.937-4.988-3.11-8.72-8.82-14.967-4.856-4.25-9.675-.32-12.027 6.147-11.694.472-24.972-.726-39.699 0-12.011 1.648-24.491.01-36.74 0-1.113-6.495-6.732-8.753-11.76-5.613-3.902 3.795-5.025 9.476-7.609 13.93-10.28 1.161-16.086 1.337-20.263 1.241-8.13-.186-7.837 8.332-5.532 13.633z"/>
  <path fill="none" stroke="#000" stroke-dasharray=".265 1.06" stroke-width=".265" d="m56.684 65.112-.802-19.243 74.835-.535 1.07 18.976"/>
  <path fill="none" stroke="#000" stroke-width=".265" d="M41.717 3.373c9.845.041 20.04.83 29.533.133 11.247-.342 12.934 0 19.377 0m18.041-.133c13.565.098 27.22.737 40.625-.134"/>
  <text xml:space="preserve" x="104.502" y="45.9" stroke-width=".265" font-family="'Caveat',cursive" font-size="10.583" font-weight="400" letter-spacing="0" style="line-height:1.25" transform="translate(-7.728 -39.988)" word-spacing="0"><tspan x="104.502" y="45.9">a</tspan></text>
  <path fill="none" stroke="#000" stroke-width=".265" d="M151.297 24.22c2.95-.054 6.21-.419 8.82-.134m11.225-.134c2.013.06 4.058.341 6.014 0"/>
  <text xml:space="preserve" x="170.652" y="65.945" stroke-width=".265" font-family="'Caveat',cursive" font-size="10.583" font-weight="400" letter-spacing="0" style="line-height:1.25" transform="translate(-7.728 -39.988)" word-spacing="0"><tspan x="170.652" y="65.945">b</tspan></text>
  <path fill="none" stroke="#000" stroke-width=".265" d="M57.886 50.947c8.063-.966 16.126-.09 24.188-.134m20.313-.133c8.374.2 16.749-.266 25.123-.401M31.16 77.273c18.022-.309 37.154-.284 53.587-1.07m19.511.669c9.44-.173 18.726-.036 28.33-.535 6.992-.152 14.967-.725 20.847-.4M8.308 90.636c26.297-.85 52.588-1.666 78.71-1.47m18.442-.534c24.195-.626 49.184-.59 72.43-2.005"/>
  <text xml:space="preserve" x="97.687" y="93.608" stroke-width=".265" font-family="'Caveat',cursive" font-size="10.583" font-weight="400" letter-spacing="0" style="line-height:1.25" transform="translate(-7.728 -39.988)" word-spacing="0"><tspan x="97.687" y="93.608">c</tspan></text>
  <text xml:space="preserve" x="99.959" y="118.33" stroke-width=".265" font-family="'Caveat',cursive" font-size="10.583" font-weight="400" letter-spacing="0" style="line-height:1.25" transform="translate(-7.728 -39.988)" word-spacing="0"><tspan x="99.959" y="118.33">d</tspan></text>
  <text xml:space="preserve" x="101.295" y="132.095" stroke-width=".265" font-family="'Caveat',cursive" font-size="10.583" font-weight="400" letter-spacing="0" style="line-height:1.25" transform="translate(-7.728 -39.988)" word-spacing="0"><tspan x="101.295" y="132.095">e</tspan></text>
  <path fill="none" stroke="#000" stroke-width=".241" d="M191.522 12.862c-.26 4.961-.405 10.838-.135 20.043"/>
  <path fill="none" stroke="#000" stroke-width=".265" d="M191.388 47.873c-.034 6.325 1.034 12.65-.268 18.976"/>
  <text xml:space="preserve" x="197.245" y="84.253" stroke-width=".265" font-family="'Caveat',cursive" font-size="10.583" font-weight="400" letter-spacing="0" style="line-height:1.25" transform="translate(-7.728 -39.988)" word-spacing="0"><tspan x="197.245" y="84.253">f</tspan></text>
  <path fill="none" stroke="#000" stroke-width=".265" d="M2.49 46.936c.114 3.292.06 4.23 0 5.078"/>
  <path fill="none" stroke="#000" stroke-width=".218" d="M2.567 64.318c.156 1.689.29 3.335.27 4.672"/>
  <text xml:space="preserve" x="7.17" y="99.947" stroke-width=".265" font-family="'Caveat',cursive" font-size="10.583" font-weight="400" letter-spacing="0" style="line-height:1.25" transform="translate(-7.728 -39.988)" word-spacing="0"><tspan x="7.17" y="99.947">g</tspan></text>
  <path stroke="#000" stroke-width=".266" d="M41.705 3.337c.35-.573.595-.085.46.18-.227.28-.523.214-.46-.18zM90.344 3.415c.35-.573.594-.085.46.18-.228.279-.523.213-.46-.18zM108.5 3.415c.349-.573.594-.085.46.18-.228.279-.524.213-.46-.18zM149.088 3.13c.35-.574.595-.086.46.18-.227.279-.523.213-.46-.18zM151.274 24.232c.35-.573.595-.085.46.18-.227.28-.523.214-.46-.18zM159.83 24.137c.35-.573.594-.085.46.18-.228.28-.524.214-.46-.18zM171.236 24.042c.35-.573.595-.085.46.18-.227.28-.523.214-.46-.18zM177.13 23.947c.35-.573.594-.085.46.18-.228.279-.523.214-.46-.18zM191.198 12.92c.35-.573.594-.085.46.18-.228.28-.523.214-.46-.18zM191.198 32.977c.35-.573.594-.085.46.18-.228.28-.523.214-.46-.18zM191.198 47.996c.35-.573.594-.085.46.18-.228.28-.523.214-.46-.18zM190.913 66.722c.35-.573.594-.085.46.18-.228.28-.523.214-.46-.18zM127.32 50.278c.35-.574.595-.086.46.18-.227.278-.523.213-.46-.18zM102.13 50.658c.35-.574.595-.086.461.18-.228.279-.523.213-.46-.18zM81.789 50.848c.35-.574.594-.086.46.18-.228.279-.523.213-.46-.18zM57.74 50.943c.35-.574.594-.086.46.18-.228.279-.523.213-.46-.18zM2.227 46.95c.35-.573.594-.085.46.18-.227.28-.523.214-.46-.18zM2.322 52.084c.35-.574.594-.086.46.18-.227.279-.523.213-.46-.18zM2.322 64.44c.35-.573.594-.085.46.18-.227.28-.523.214-.46-.18zM2.512 69.004c.35-.574.595-.086.46.18-.227.278-.523.213-.46-.18zM31.029 77.178c.35-.573.594-.085.46.18-.228.28-.523.214-.46-.18zM8.215 90.676c.35-.573.595-.085.46.18-.227.28-.523.214-.46-.18zM86.827 89.06c.35-.573.594-.085.46.18-.228.28-.523.214-.46-.18zM84.545 76.228c.35-.574.595-.086.46.18-.227.279-.523.213-.46-.18zM103.937 76.893c.35-.573.594-.085.46.18-.228.28-.523.214-.46-.18zM105.267 88.49c.35-.574.595-.086.46.18-.227.279-.523.213-.46-.18zM177.51 86.684c.35-.574.594-.086.46.18-.228.279-.523.213-.46-.18zM153.08 75.943c.35-.574.595-.086.46.18-.227.279-.523.213-.46-.18z"/>
</svg>
