<svg xmlns="http://www.w3.org/2000/svg" viewBox="0 0 232.655 118.195">
  <path fill="#aab1b1" stroke="#000" stroke-width=".265" d="M212.002 21.33C201.11 7.516 14.277 12.836 8.857 24.376 4.59 47.522 6.752 47.636 5.925 70.492c.513 2.304 4.691 4.055 4.774 6.009.069 1.63-2.539 3.752-5.175 5.423l-.367 13.052c-7.468-2.565-5.544 8.316-1.122 7.805l207.953-1.435c8.638-2.572 8.358-11.038 2.215-8.525-1.366-2.649-.982-8.214-.232-14.39-2.298-1.268-6.316-3.514-4.986-4.888 2.774-2.63 4.347-3.526 5.508-5.931 1.673-14.027-.983-45.416-2.49-46.282z"/>
  <path fill="none" stroke="#000" stroke-linecap="round" stroke-width="3.695" d="M15.53 27.98c.27 3.274 1.06 6.724.786 9.812-.558 6.844.592 9.615 1.111 13.89" opacity=".6"/>
  <path fill="none" stroke="#000" stroke-linecap="round" stroke-width="3.886" d="M25.391 25.82c.242 4.048 1.042 7.512.797 11.33.241 8.464.73 11.89.994 17.176M36.664 23.964c.241 4.048-1.697 1.281.702 10.707 1.514 6.566.624 9.928 1.088 15.215M47.204 25.362c.242 4.048.002 8.76-.243 12.578-.5 8.463-.038 9.572.426 14.859M55.732 24.137c.242 4.048.569 6.889.324 10.707.248 2.198.878 5.38 1.386 7.735 2.316 10.727.676 7.064.931 9.975M65.967 24.183c.242 4.048-.471 7.334-.716 11.152.636 8.464.53 11.89.994 17.176M77.293 23.353c.242 4.048-1.038 7.512-1.283 11.33-.499 8.464.53 11.89.994 17.176M86.988 22.783c.242 4.048-1.038 2.7-1.283 6.518-.499 8.464.151 10.375.616 15.661M97.304 21.268c.242 4.048-.093 7.334-.338 11.152-.498 8.464-.226 11.266.238 16.552M107.499 20.878c.241 4.048.947 8.314.702 12.133-.499 8.463 1.475 7.612 1.94 12.898M118.558 21.138c-2.323 4.048.558 8.314.702 12.133-.499 8.463 1.948 9.215 2.412 14.502M128.952 21.927c.242 4.048.947 8.314.702 12.133-.499 8.463.53 11.889.994 17.176M142.097 22.87c-2.048 4.047-3.228 5.106-2.986 8.924-.498 8.463.53 10.463.994 15.75M153.607 23.14c.241 4.047.474 11.165.229 14.983-.499 8.464-1.834 6.186-1.37 11.473" opacity=".6"/>
  <path fill="none" stroke="#000" stroke-linecap="round" stroke-width="3.75" d="M201.29 26.236c.265 3.438.82 5.542.55 8.786-1.313 7.19.581 7.3 1.09 11.791" opacity=".6"/>
  <path fill="none" stroke="#000" stroke-linecap="round" stroke-width="3.886" d="M192.202 23.13c-2.3 4.047-1.076 5.864-.897 9.682 2.282 9.893.532 11.89.994 17.176M172.488 22.681c.127 2.123-.483 6.605-.462 10.133.019 3.197 1.78 4.894 1.664 6.71-.499 8.463-.87 1.998-.405 7.284M162.999 22.052c.241 4.048-.452 6.713-.697 10.531 1.1 9.029.23 11.042.694 16.328" opacity=".6"/>
  <path fill="none" stroke="#000" stroke-width=".265" d="M13.275 77.113c9.52-.135 21.217-.815 28.065-.282 12.785 1.102 25.57.078 38.356 0 18.113-.77 36.226-2.055 54.339-1.2 29.741 2.62 56.339-2.695 73.32-1.209"/>
  <path fill="none" stroke="#000" stroke-width=".275" d="M212.632 68.11c-14.091.818-28.183.448-42.274.399-21.39-.167-41.987-.233-62.98.4l-67.294 2.395-30.344-.799" opacity=".5"/>
  <path fill="none" stroke="#000" stroke-width=".265" d="M7.1 94.905c7.517 5.166 14.59 1.462 23.053 1.903 16.12-.767 32.152-1.512 50.342-2.797 22.04-.53 34.786-.57 66.325-1.598 13.983-.568 25.347-.674 35.46-.56 7.904.09 15.045.315 22.074.56l7.64.383"/>
  <path fill="none" stroke="#000" stroke-width=".272" d="M.788 115.77c11.295-.041 22.293-.439 33.36.538 15.751 1.39 31.773.522 48.943-.835 25.853-1.391 15.74.303 22.773-.081"/>
  <path fill="none" stroke="#000" stroke-width=".279" d="M124.006 115.391c19.916-.036 39.3.885 59.755-.12 12.984-.022 29.184-.046 34.928-.069"/>
  <text xml:space="preserve" x="110.302" y="212.913" stroke-width=".265" font-family="sans-serif" font-size="10.583" font-weight="400" letter-spacing="0" style="line-height:1.25" transform="translate(1.609 -94.878)" word-spacing="0"><tspan x="110.302" y="212.913">b</tspan></text>
  <path stroke="#000" stroke-width=".115" d="M105.862 115.216c.11-.101.252-.077.372-.057.144.13.018.217-.014.32-.084.172-.18.134-.31.076-.364-.241-.048-.34-.048-.34zM.49 115.6c.11-.102.252-.078.372-.058.144.13.018.218-.014.32-.084.173-.18.134-.31.076-.364-.24-.048-.339-.048-.339zM123.772 115.257c.11-.101.252-.077.372-.057.144.13.018.217-.014.32-.084.172-.179.134-.309.076-.365-.241-.049-.34-.049-.34zM218.398 115.074c.11-.101.252-.077.371-.057.145.13.018.217-.014.32-.083.172-.179.134-.309.076-.365-.242-.048-.34-.048-.34zM228.698 16.047c.11-.101.252-.077.371-.057.145.13.018.218-.014.32-.083.173-.179.134-.309.076-.364-.241-.048-.339-.048-.339zM230.21 102.34c.11-.102.252-.078.371-.058.145.13.018.218-.014.32-.084.172-.179.134-.309.076-.365-.241-.048-.339-.048-.339z"/>
  <text xml:space="preserve" x="225.821" y="158.864" stroke-width=".265" font-family="sans-serif" font-size="10.583" font-weight="400" letter-spacing="0" style="line-height:1.25" transform="translate(1.609 -94.878)" word-spacing="0"><tspan x="225.821" y="158.864">c</tspan></text>
  <path fill="none" stroke="#000" stroke-width=".247" d="M230.387 54.521c.089-4.565.649-8.176.267-13.695-.624-8.125-2.27-14.575-1.872-24.374"/>
  <path fill="none" stroke="#000" stroke-width=".217" d="M230.26 68.628c-.445 3.251-1.352 1.443.137 13.886-.255 6.34-.657 12.736-.005 19.001l-.068.91"/>
  <path stroke="#000" stroke-width=".115" d="M230.29 54.397c.111-.1.253-.077.372-.057.145.13.018.218-.014.32-.083.173-.179.135-.309.077-.364-.242-.048-.34-.048-.34zM230.082 68.335c.11-.101.252-.077.372-.057.144.13.018.217-.014.32-.084.172-.18.134-.31.076-.364-.241-.048-.339-.048-.339z"/>
  <text xml:space="preserve" x="106.902" y="100.79" stroke-width=".265" font-family="sans-serif" font-size="10.583" font-weight="400" letter-spacing="0" style="line-height:1.25" transform="translate(1.609 -94.878)" word-spacing="0"><tspan x="106.902" y="100.79">a</tspan></text>
  <path fill="none" stroke="#000" stroke-width=".265" d="M100.76 3.24a628.047 628.047 0 0 1-36.615-1.07c-17.016-.865-34.033.392-51.049.802M122.944 3.506c29.455.098 58.609 1.314 85.259.802"/>
  <path stroke="#000" stroke-width=".115" d="M13.007 2.748c.11-.1.251-.077.37-.057.145.13.02.218-.013.32-.084.173-.179.135-.309.077-.365-.242-.049-.34-.049-.34zM100.57 3.05c.111-.102.252-.078.372-.058.145.13.018.218-.014.32-.084.173-.179.134-.309.076-.365-.241-.048-.339-.048-.339zM122.754 3.35c.11-.101.252-.077.371-.057.145.13.019.217-.014.32-.083.172-.178.134-.308.076-.365-.242-.049-.34-.049-.34zM208.08 4.051c.11-.1.252-.077.371-.057.145.13.018.218-.014.32-.083.173-.179.134-.309.076-.365-.24-.048-.339-.048-.339z"/>
  <path fill="none" stroke="#000" stroke-width=".275" d="M211.292 79.18c-14.092.819-27.649 2.32-41.74 2.27-21.391-.166-41.987-1.301-62.98-.67l-67.294 3.465-28.206-1.6" opacity=".5"/>
  <path fill="none" stroke="#000" stroke-linecap="round" stroke-width="3.886" d="M182.216 23.155c.127 2.123.854 9.125.875 12.653.02 3.197-.358 4.138-.475 5.953-.499 8.464 1.537 4.52 2.002 9.806" opacity=".6"/>
</svg>
