<?xml version="1.0" encoding="UTF-8" standalone="no"?>
<!-- Created with Inkscape (http://www.inkscape.org/) -->

<svg
   xmlns:dc="http://purl.org/dc/elements/1.1/"
   xmlns:cc="http://creativecommons.org/ns#"
   xmlns:rdf="http://www.w3.org/1999/02/22-rdf-syntax-ns#"
   xmlns:svg="http://www.w3.org/2000/svg"
   xmlns="http://www.w3.org/2000/svg"
   xmlns:sodipodi="http://sodipodi.sourceforge.net/DTD/sodipodi-0.dtd"
   xmlns:inkscape="http://www.inkscape.org/namespaces/inkscape"
   width="97.467735mm"
   height="178.25058mm"
   viewBox="0 0 97.467735 178.25058"
   version="1.1"
   id="svg2350"
   inkscape:version="0.92.4 (5da689c313, 2019-01-14)"
   sodipodi:docname="jar-scribble.svg">
  <defs
     id="defs2344">
    <inkscape:path-effect
       effect="bspline"
       id="path-effect2897"
       is_visible="true"
       weight="33.333333"
       steps="2"
       helper_size="0"
       apply_no_weight="true"
       apply_with_weight="true"
       only_selected="false" />
  </defs>
  <sodipodi:namedview
     id="base"
     pagecolor="#ffffff"
     bordercolor="#666666"
     borderopacity="1.0"
     inkscape:pageopacity="0.0"
     inkscape:pageshadow="2"
     inkscape:zoom="0.98994949"
     inkscape:cx="-144.19468"
     inkscape:cy="440.5572"
     inkscape:document-units="mm"
     inkscape:current-layer="layer1"
     showgrid="false"
     inkscape:window-width="1920"
     inkscape:window-height="1121"
     inkscape:window-x="-9"
     inkscape:window-y="-9"
     inkscape:window-maximized="1"
     fit-margin-top="0"
     fit-margin-left="0"
     fit-margin-right="0"
     fit-margin-bottom="0" />
  <metadata
     id="metadata2347">
    <rdf:RDF>
      <cc:Work
         rdf:about="">
        <dc:format>image/svg+xml</dc:format>
        <dc:type
           rdf:resource="http://purl.org/dc/dcmitype/StillImage" />
        <dc:title></dc:title>
      </cc:Work>
    </rdf:RDF>
  </metadata>
  <g
     inkscape:label="Layer 1"
     inkscape:groupmode="layer"
     id="layer1"
     transform="translate(-46.683339,-107.1101)">
    <path
       style="fill:none;stroke:#000000;stroke-width:1.25;stroke-linecap:butt;stroke-linejoin:miter;stroke-miterlimit:4;stroke-dasharray:none;stroke-opacity:1"
       d="m 78.897084,108.42216 c -9.042724,0.66802 -9.492067,1.7466 -9.538586,2.68706 -0.04652,0.94045 0.309705,1.74195 0.487911,2.81106 0.178207,1.06911 0.178207,2.40525 7.2e-5,3.42983 -0.178135,1.02458 -0.534425,1.73716 -0.623577,2.49466 -0.08915,0.7575 0.08895,1.55895 0.17806,2.76182 0.08911,1.20288 0.08911,2.80611 -0.178122,4.14252 -0.267235,1.33641 -0.801685,2.40531 -2.049154,3.38551 -1.247469,0.98021 -3.206864,1.87085 -5.478866,2.85093 -2.272001,0.98008 -4.855185,2.04898 -7.171717,4.36545 -2.316531,2.31646 -4.365343,5.87961 -5.389966,11.22534 -1.024624,5.34573 -1.024624,12.47229 -1.158262,28.15255 -0.133639,15.68027 -0.400898,39.91181 -0.578788,58.22362 -0.17789,18.31182 -0.267559,30.86554 1.870704,37.99303 2.138263,7.12749 6.50358,8.90925 13.363312,10.11192 6.859733,1.20268 16.21465,1.82633 26.504399,1.64814 10.289749,-0.17819 21.515366,-1.15821 30.780616,-1.78182 9.26524,-0.62362 16.57079,-0.89089 20.17879,-5.65714 3.608,-4.76626 3.51891,-14.03196 3.38528,-32.02773 -0.13363,-17.99577 -0.31181,-44.72348 -0.44545,-64.9468 -0.13363,-20.22333 -0.22272,-33.9433 -3.30654,-40.89441 -3.08382,-6.95111 -9.16248,-7.13376 -12.28083,-8.60391 -3.11835,-1.47014 -3.27583,-4.22738 -3.13179,-6.14058 0.14404,-1.9132 0.58951,-2.98233 0.4559,-4.00659 -0.13361,-1.02425 -0.84655,-2.00453 -1.20289,-3.34095 -0.35634,-1.33642 -0.35634,-3.38556 -0.1677,-4.48835 0.18864,-1.10278 0.56574,-1.43757 0.56557,-2.23934 -1.6e-4,-0.80177 -0.37721,-2.07064 -9.38353,-2.57612 -9.00633,-0.50548 -26.642122,-0.24772 -35.684846,0.4203 z"
       id="path2895"
       inkscape:connector-curvature="0"
       inkscape:path-effect="#path-effect2897"
       inkscape:original-d="m 70.303572,108.0119 c -0.449082,1.07833 -0.898423,2.15692 -1.348034,3.23578 0.356759,0.80185 0.712983,1.60335 1.069078,2.40542 2.65e-4,1.33629 2.65e-4,2.67243 0,4.00905 -0.356166,0.71259 -0.712454,1.42517 -1.069078,2.13815 0.178522,0.8019 0.356624,1.60335 0.534538,2.40543 2.64e-4,1.60374 2.64e-4,3.20697 0,4.81085 -0.534363,1.06899 -1.068814,2.13789 -1.603616,3.20723 -1.960295,0.8909 -3.919688,1.78154 -5.879931,2.6727 -2.583762,1.06899 -5.166947,2.13789 -7.750815,3.20723 -2.049055,3.56377 -4.097869,7.12692 -6.147199,10.69078 2.64e-4,7.12755 2.64e-4,14.25411 0,21.38157 -0.267015,24.23307 -0.534276,48.46461 -0.801809,72.69731 -0.08824,12.39093 -0.177913,24.94465 -0.26727,37.41774 4.365753,1.78156 8.731067,3.56333 13.096206,5.34539 9.354214,0.62333 18.709132,1.24698 28.063301,1.87087 11.225289,-0.98023 22.450907,-1.96025 33.675957,-2.93997 7.30545,-0.26752 14.611,-0.5348 21.9161,-0.80179 -0.0888,-9.26526 -0.17791,-18.53096 -0.26726,-27.79604 -0.17792,-26.72646 -0.3561,-53.45417 -0.53454,-80.18085 -0.0888,-13.71997 -0.17792,-27.43994 -0.26727,-41.15951 -6.07854,-0.18292 -12.1572,-0.36558 -18.2364,-0.54797 -0.15723,-2.75764 -0.31472,-5.51488 -0.47247,-8.27192 0.44569,-1.06929 0.89116,-2.13842 1.33635,-3.20724 -0.71224,-0.97996 -1.42518,-1.96024 -2.13816,-2.93996 2.6e-4,-1.6929 2.6e-4,-3.74204 0,-5.61267 0.37726,-0.33496 0.75436,-0.66975 1.13115,-1.00422 -0.37679,-1.26914 -0.75383,-2.53802 -1.13115,-3.80663 -17.63565,0.25749 -35.271446,0.51525 -52.907678,0.77327 z"
       sodipodi:nodetypes="ccccccccccccccccccccccccccccc" />
  </g>
</svg>
