<svg xmlns="http://www.w3.org/2000/svg" xmlns:osb="http://www.openswatchbook.org/uri/2009/osb" xmlns:xlink="http://www.w3.org/1999/xlink" viewBox="0 0 420 297">
  <defs>
    <linearGradient xlink:href="#a" id="b" x1="-1473.168" x2="-1178.687" y1="1629.585" y2="1629.585" gradientTransform="matrix(.1116 0 0 .12386 436.222 -20.47)" gradientUnits="userSpaceOnUse"/><linearGradient osb:paint="solid" id="a"><stop offset="0" stop-color="#aab1b1"/></linearGradient>
  </defs>
  <path fill="#aab1b1" stroke="#000" stroke-linejoin="round" stroke-width="1.25" d="M36.702 121.638c1.166 2.896 3.04 3.882.717 7.341.379 2.656 1.921 7.014 6.527 8.65-4.88 3.853-11.208.119-12.004-1.621-1.027-2.04-3.143-9.394-2.522-9.981zM92.823 106.278l-8.857 4.34c2.003 2.27-3.5 21.415-3.594 21.647-.312-1.024-.625-2.047-.834-3.1-.422-1.981-4.368-12.259-4.515-15.372l-9.696 4.614c3.178 2.563 4.705 11.09 5.657 13.568.781 1.833 1.127 3.813 1.553 5.75.418 1.77 1.031 3.47 1.43 5.242.339 1.352 4.93 14.857 4.468 17.937l9.79-4.43c-3.467-3.18-5.276-11.907-5.697-13.43-.126-.51-.267-1.018-.404-1.527.568.086 1.135.175 1.701.273 1.608.365 3.167.928 4.724 1.465 1.364.353 2.679.85 4.008 1.312 1.2.478 2.392.985 3.613 1.408 1.16.44 2.207 1.107 3.366 1.555 1.106.535 1.685.785 1.863 2.808 1.052.782 13.137-5.59 12.766-5.72-10.925-3.632-28.842-8.795-29.592-10.958.688-1.427 7.239-24.337 8.25-27.382z"/>
  <path fill="#aab1b1" stroke="#000" stroke-linejoin="round" stroke-width="1.323" d="M131.608 91.703c-1.88 2.463 1.81 12.103 2.199 15.025.288 2.187 2.414 10.334 2.968 12.28.445 1.54 4.06 14.57 5.921 15.808l-13.323 3.02c.743-2.622-.804-14.064-1.217-16.034-.756-2.164-5.663-23.883-8.367-26.997z"/>
  <path fill="#aab1b1" stroke="#000" stroke-linejoin="round" stroke-width="1.25" d="M166.228 86.075c.464 2.942-1.371 9.7-1.282 12.672.172 2.268.206 4.537.222 6.81.14 1.393.197 2.784.205 4.183-.064 1.21-.05 2.365.248 3.545.246 1.208.537 2.42.668 3.649.1.847.11 2.03 1.01 2.43 1.11-.128 2.234-.308 3.321-.606 1.824-.572 2.368.051 4.109-.732 1.443-.659 3.95-.805 5.386-1.479 1.412-.56 3.096-.684 4.604-.922 1.405-.367 4.665-.111 6.092-.349.99-.076-.602 6.074.383 6.07l.12 5.546c-.912-.075-10.895.022-12.348.656-1.794.77-10.296 1.338-12.183 1.854-1.315.286-5.497.92-6.81.477-1.175-.688-.704-3.062-.832-4.415-.097-1.193-.353-2.332-.496-3.524-.4-1.206-.735-2.439-.456-3.714-.112-1.406.094-2.819-.204-4.218-.096-2.301.148-4.613-.126-6.914-.081-2.899-3.146-16.762-3.71-19.62zM212.748 86.173c-2.98-.033-2.38-.087-6.678.236-.015.633-.296 11.368-.449 11.993a25.978 25.978 0 0 0-.44 4.061c-.016 1.33-.274 20.224.879 22.609l9.976.434c-2.514-1.127-1.046-16.629-1.244-18.562.06-1.616.125-7.283 1.418-5.987 1.354 1.287 2.747 2.544 4.006 3.927.917 1.145 1.614 2.42 2.502 3.587 1.016 1.439 1.834 2.988 2.856 4.423 1.011 1.413 1.845 2.938 2.634 4.482 1.019 1.586 5.253 8.601 6.253 10.207 4.764.345 5.628.658 8.83.685-2.046-2.625-1.586-13.145-1.578-13.208-.193-2.724-.344-5.435-.672-8.148-.311-2.677.031-5.364-.139-8.041-.115-2.337-.094-8.482 1.263-10.693l-9.62-.792c1.939 2.924 1.77 22.23 1.84 23.328-.557 1.956-13.563-22.312-21.637-24.54zM266.105 89.838c1.892 1.75-1.874 17.78-2.135 19.345-.013 1.41-3.285 16.216-5.429 16.674-.123 1.78 14.127 4.145 15.814 4.826 1.666.714 15.762 4.54 16.48 4.671l3.66-9.78c-1.03 1.552-21.19-4.37-23.407-5.669-1.158-.602.308-3.981.339-4.165 1.43.093 8.02 1.851 8.959 2.085l2.63-9.014c-.967-.255-7.639-2.555-9.719-2.439.227-.85.732-4.238.82-4.606.115.042.23.081.346.125 1.71.349 20.408 6.505 22.676 6.455l2.731-9.398c-2.187.152-20.438-5.624-22.085-5.805-.714.014-11.518-2.74-11.68-3.305zM329.776 110.567c-3.065 3.27-4.505 7.118-5.623 10.13-.628 1.29-7.028 11.767-7.928 13.686-1.467 2.847-2.852 5.736-4.207 8.643l6.503 3.025 3.756-8.056c.212-.533 1.648-1.78 3.049-1.434 1.167.764 2.225 1.198 2.91 2.624.452.708 5.78 16.48 6.443 17.907.516.776 4.242 3.043 4.766 3.756 0 0 3.792-5.14 3.397-5.804-.665-1.42-6.556-12.409-7.116-13.615 4.259 1.301 8.818-.414 9.823-1.284 5.817-4.396 8.11-14.707 6.785-17.526-.605-1.296-1.204-2.595-1.86-3.867-.637-1.195-1.318-2.372-2.218-3.39-.937-1.099-1.698-2.35-2.784-3.313-1.082-.914-2.115-1.866-3.392-2.496-1.21-.75-9.33-3.906-10.843-3.37 0 0-.063 2.893-1.461 4.384zm5.355 4.716c1.304.22 2.074.726 3.2 1.424 1.25.584 2.228 1.508 3.266 2.396 1.016.953 4.396 4.958 4.981 6.092 1.215 1.83-1.532 9.234-4.073 10.342-1.4.643-2.985.547-4.496.345a12.533 12.533 0 0 1-1.998-.422c-.799-1.125-8.088-7.083-9.174-7.118.518-1.1 5.815-11.276 5.937-11.467.28-.45 1.129-1.852 2.357-1.592zM116.717 183.594c1.195 4.485 1.564 15.489 15.937 17.476 1.758.016 14.61.76 16.333-1.642 4.408-1.864 4.104-26.047 4.11-27.741 0-2.29-.876-14.685 1.678-15.767l-11.434-.585c2.638 1.647-.277 27.04-.69 34.82-1.614 4.004-12.698 1.284-14.594.816-5.48-2.129-2.59-9.356-.087-7.932l-2.259-11.915c-.992 2.536-5.658 2.48-7.09 3.946-2.559 2.1-2.378 6.46-1.904 8.524zM175.717 197.912c-2.352-1.564 3.349-10.426 3.78-11.389 0 0 12.133.062 12.188.201.5 1.366 5.866 10.287 3.716 11.66l9.392-.242c-2.8-1.257-6.746-19.715-6.95-21.569-.258-2.303-3.349-15.556-8.038-18.729-1.362-.48-7.205-.506-8.3.5-.937 1.112-8.017 15.871-8.372 17.332-.51 1.308-6.226 20.878-7.103 22.733zm9.054-30.752c.887-.781 3.711-.847 4.838-.043.087.691 1.197 9.282 1.447 10.864.114.535-9.108-.118-9.827.008 0 0 2.83-9.806 3.542-10.829zM228.992 198.026c-.1-2.397.08-4.804.22-7.199.132-1.262.3-2.507.377-3.764 1.435 1.08 3.366 1.765 5.676 1.442.425-.025.85-.06 1.272-.102.348.194.698.385 1.05.573.476.423 1.02.899 1.615 1.411-.223-.177.569.59.81.885.713.972 1.504 1.879 2.264 2.81.419.516 3.155 4.116 3.482 4.697l9.366 1.44c.548-1.3-.181-6.122-.999-6.352-10.31-8.504-9.032-7.059-5.746-8.476 1.404-.57 4.493-2.477 6.744-7.628.67-1.475.997-5.771.257-7.285-2.138-15.12-28.656-12.18-34.98-7.621-.357 1.181-.807 2.33-.4 3.58.218 1.337.183 2.679.35 4.02.13 1.503 1.37 9.01 1.251 10.543.173 1.529-1.645 14.736-1.689 17.142zm.227-17.316c-.028-1.465-.304-2.897-.533-4.337-.185-1.337-.194-2.69-.34-4.03-.302-1.116-.182-2.1.158-3.173.33-1.012 1.211-1.47 2.066-1.923 1.152-.691 2.414-.918 3.693-1.19 1.201.051 2.387.271 3.578.432 1.363.298 2.708.693 4.079.955 9.533 4.468 2.571 9.076 1.347 9.646-1.368.606-2.756 1.164-4.142 1.722-1.354.474-2.636 1.204-4.038 1.507-1.24.383-2.502.416-3.774.558-.38.067-.768.141-1.158.203a9.349 9.349 0 0 0-.925-.368c-.005-.003-.007.002-.011 0zM51.98 111.892c1.838 2.79 2.502 4.39.179 7.85.379 2.656 2.212 7.084 6.818 8.72-4.88 3.853-10.962-.46-11.758-2.2-1.027-2.04-3.394-10.154-2.773-10.741z"/>
  <path fill="#aab1b1" stroke="#000" stroke-linejoin="round" stroke-width="1.257" d="M387.19 122.261c-2.321 2.428-3.265 3.89-1.558 7.7-.844 2.55-3.448 6.592-8.323 7.403 4.184 4.643 11.001 1.45 12.1-.125 1.38-1.83 5.164-9.41 4.649-10.096z"/>
  <path fill="#aab1b1" stroke="#000" stroke-linejoin="round" stroke-width="1.25" d="M372.724 115.982c-4.228.022-5.24 3.003-1.208 5.72-.835 2.55-4.583 7.254-9.402 8.065 4.136 4.642 10.875 1.45 11.96-.125 1.366-1.83 6.316-11.18-1.35-13.66z"/>
  <path fill="url(#b)" stroke="#000" stroke-linejoin="round" stroke-width="1.25" d="M286.797 160.915c-1.303.1-13.164-.936-14.428 9.165-.613 2.223-.111 4.568.899 6.539 2.045 2.895 5.368 3.978 8.42 4.984 4.075 1.318 8.222 2.357 12.212 3.98 2.13.958 6.412 5.35-1.288 7.465-3.557.714-7.12 1.001-10.705.483-1.108-.14-8.163-.326-9.179-.802 0 0-.753 8.07.15 8.184 26.186 3.313 31.592-2.65 31.528-13.547-.432-8.22-21.31-9.434-21.53-16.369-.28-4.736 18.776-2.002 20.85-1.752l-.03-7.826c-1.708-.684-13.823-.52-16.899-.504z"/>
  <path fill="none" stroke="#E78200" stroke-width="2" d="M30.97 104.811c4.787-7.055 9.323-11.339 15.862-16.298 6.539-4.958 15.082-10.593 26.421-16.01 11.34-5.418 25.475-10.62 39.473-14.606 13.997-3.986 27.856-6.758 42.345-8.648 14.49-1.89 29.608-2.898 44.097-3.276 14.49-.378 28.349-.126 42.082.63s27.34 2.016 41.808 4.377c14.468 2.36 30.385 5.955 44.748 10.616 14.363 4.662 27.467 10.458 39.184 18.27 11.717 7.81 22.048 17.638 28.852 28.6 6.803 10.96 10.08 23.056 9.407 35.008-.673 11.953-5.123 23.325-12.683 33.657-7.56 10.332-18.143 19.403-32.128 27.088-13.985 7.686-31.372 13.985-46.864 18.418-15.493 4.433-28.605 6.907-44.606 8.797-16.001 1.89-34.648 3.15-52.16 3.653-17.514.504-33.892.252-49.642-1.133-15.749-1.386-30.868-3.906-46.702-8.175-15.835-4.27-32.547-10.346-46.849-17.985-14.302-7.638-26.52-17.056-35.213-26.38-8.693-9.323-13.985-18.646-17.135-26.962-3.15-8.315-4.157-15.623-2.141-24.19 2.015-8.567 7.055-18.395 11.843-25.45z"/>
</svg>
