<svg xmlns="http://www.w3.org/2000/svg" viewBox="0 0 139.084 303.347">
  <g stroke="#000">
    <path fill="#f7fefe" stroke-width=".4" d="m22.312 1.761.078 12.365c-6.068 4.151-2.36 7.487-.267 10.958l.945 9.522c-8.082 7.507-2.567 8.695-.157 12.386.965 17.423-20 7.648-21.1 24.597.018 46.616 1.013 96.647-.802 136.842-1.028 27.05-.702 55.455-.804 83.431-.798 10.826 5.022 11.467 11.34 11.34l115.08-.96c14.356-1.608 12.111-8.833 12.295-15.5-.891-71.285-1.782-144.3-2.673-216.49-.09-13.79-18.858-10.368-19.654-19.901l.3-6.096c5.116-3.653 6.562-6.738.11-10.391 0-4.263.19 4.334.19-9.198 4.26-2.822 6.58-6.011-.111-10.078l.189-13.29c-31.14-2.41-63.147-.484-94.96.463Z"/>
    <path fill="none" stroke-width=".4" d="M23.994 46.733c30.381-.797 74.348-.236 91.005-2.405h.535M115.4 33.904c-30.94.566-64.99 2.791-91.139.802M23.46 24.416c7.484-.653 93.223-.477 91.405-.267M115.4 14.928c.546-.504-87.627-1.96-91.54-.134" opacity=".6"/>
    <path fill="none" stroke-width=".4" d="M22.882 102.31c2.907-.531 3.849 1.465 4.572 3.742.67 54.429.616 107.406.832 160.926-.02 5.714-1.565 6.42-3.326 6.415-6.207.932-4.626-4.77-4.988-8.02 1.766-45.855-.358-104.16-.832-157.182.207-3.846 1.38-5.942 3.742-5.881z"/>
    <path fill="none" stroke-width=".4" d="M54.609 105.549c-.145 56.59 1.89 108.363 2.106 164.007-.02 5.94-1.564 6.675-3.324 6.67-6.204.968-4.624-4.96-4.986-8.338 1.766-47.676-3.555-107.866-1.634-162.195.659-7.238 8.15-6.458 7.838-.144z"/>
    <path fill="none" stroke-width=".4" d="M120.585 136.436c1.381 1.077.653 49.71-1.134 49.515 2.166.09 4.419-.326 6.273-.013-2.234-5.895-.805-10.84-.614-17.15 3.992 5.323 8.796 10.569 9.072 16.252 1.163.307 2.344.24 3.496.15-.029-.504-.004-4.306-.005-4.712-4.282-5.98-7.49-12.952-11.429-19.25 2.603-7.88 6.373-15.565 10.8-23.14.02-.102.021-2.043.023-2.114l-5.531.307c.52 1.787-3.887 13.664-6.048 18.262.239-4.754-.534-17.866.756-18.64-1.767.359-3.97-.301-5.659.533z"/>
  </g>
</svg>
