<svg xmlns="http://www.w3.org/2000/svg" viewBox="0 0 245.233 148.664">
  <path fill="#aab1b1" stroke="#000" stroke-width=".265" d="M204.88 80.937c2.711-4.314 6.698-7.778 7.378-13.447-.69-7.117-.398-22.14.279-34.73.335-7.227-7.142-11.803-11.103-11.017-12.816-.67-21.78-2.485-50.706-.088-39.27.84-116.004-3.494-118.146-1.188-1.65 1.246-17.794-.672-18.647 15.606-1.96 19.55.201 32.809-1.021 42.04 2.015 2.408 4.215 5 4.044 5.222-10.525 9.69-9.937 23.33-5.554 26.652L5.157 127.85c-7.468-2.565-5.544 8.317-1.122 7.805l211.428-4.375c8.637-2.571 5.15-10.503-.993-7.99l-10.388-12.786c15.636-18.909 6.009-21.667.799-29.567z"/>
  <path fill="none" stroke="#000" stroke-linecap="round" stroke-width="4" d="M24.507 42.735c.242 4.292.947 8.816.702 12.865-.499 8.974.53 12.607.993 18.212M33.727 40.878c.242 4.292 1.041 7.965.796 12.014.241 8.974.73 12.607.994 18.213M41.518 43.988c.242 4.292-1.695 1.358.702 11.353 1.513 6.962.624 10.528 1.088 16.133M52.052 44.4c.242 4.293.002 9.29-.243 13.338-.498 8.974-.038 10.15.426 15.756M60.575 39.093c.241 4.293.569 7.305.324 11.353.248 2.331.878 5.706 1.385 8.202 2.314 11.375.675 7.49.93 10.578M70.804 42.616c.241 4.293-.47 7.777-.716 11.826.636 8.974.53 12.607.994 18.212M82.658 39.331c.242 4.292-1.038 7.966-1.283 12.014-.498 8.975.53 12.607.994 18.213M92.347 42.736c.242 4.292-1.038 2.862-1.283 6.911-.498 8.975.152 11 .616 16.606M102.39 37.922c.241 4.292-.093 7.776-.338 11.825-.499 8.974-.227 11.946.237 17.551M110.44 39.38c.241 4.292.946 8.815.701 12.864-.498 8.975 1.475 8.072 1.939 13.677M122.027 36.982c-2.322 4.292.557 8.816.701 12.865-.498 8.974 1.947 9.772 2.411 15.378M132.415 36.483c.241 4.292.946 8.816.701 12.865-.498 8.974.53 12.607.994 18.212M146.888 39.086c-2.047 4.292-3.226 5.414-2.984 9.462-.498 8.975.53 11.096.994 16.701M158.123 39.906c.242 4.292.475 11.84.23 15.889-.499 8.974-1.833 6.56-1.37 12.165M200.237 37.382c.242 4.292.747 6.918.502 10.967-1.197 8.974.53 9.11.994 14.716M190.549 35.084c-2.3 4.293-1.076 6.22-.897 10.268 2.28 10.49.531 12.608.993 18.213M178.063 37.282c.126 2.251-.483 7.004-.462 10.744.019 3.39 1.78 5.19 1.663 7.115-.499 8.974-.87 2.119-.405 7.725M166.975 36.882c.242 4.292-.451 7.118-.696 11.167 1.1 9.574.23 11.708.693 17.314" opacity=".6"/>
  <path fill="none" stroke="#000" stroke-width=".265" d="M11.404 109.987c9.52-.135 21.217-.815 28.065-.282 12.786 1.102 25.571.078 38.356 0 18.113-.77 36.226-2.055 54.339-1.199 20.243.905 38.622.335 57.934-.065 5.482-.029 10.486-.555 13.984 2.063M204.88 80.937c-13.05.82-26.103.45-39.155.4-19.812-.166-38.889-.233-58.333.4l-62.33 2.397-28.104-.8M5.23 127.78c7.516 5.165 14.59 1.461 23.052 1.902 16.12-.767 32.152-1.512 50.343-2.797 22.039-.529 34.785-.569 66.324-1.598 24.914-1.012 41.512-.557 57.535 0l11.915-2.022"/>
  <path fill="none" stroke="#000" stroke-width=".272" d="M1.59 146.238c11.295-.04 22.293-.438 33.36.539 15.751 1.39 31.773.522 48.943-.835 25.852-1.391 15.74.303 22.772-.082"/>
  <path fill="none" stroke="#000" stroke-width=".279" d="M124.807 145.86c19.917-.037 39.3.885 59.756-.12 12.984-.023 29.184-.046 34.928-.069"/>
  <text xml:space="preserve" x="108.164" y="216.12" stroke-width=".265" font-family="'Caveat',cursive" font-size="10.583" font-weight="400" letter-spacing="0" style="line-height:1.25" transform="translate(4.549 -67.617)" word-spacing="0"><tspan x="108.164" y="216.12">b</tspan></text>
  <path stroke="#000" stroke-width=".115" d="M106.664 145.685c.11-.102.252-.078.371-.058.145.13.019.218-.013.32-.084.173-.18.135-.31.077-.364-.242-.048-.34-.048-.34zM1.292 146.068c.11-.101.252-.077.371-.057.145.13.019.218-.014.32-.083.172-.178.134-.308.076-.365-.241-.049-.339-.049-.339zM124.574 145.726c.11-.102.252-.078.372-.058.144.13.018.218-.014.32-.084.173-.18.135-.31.077-.364-.242-.048-.34-.048-.34zM219.2 145.542c.11-.1.251-.077.37-.057.146.13.02.218-.013.32-.084.173-.179.135-.309.077-.365-.242-.048-.34-.048-.34zM240.992 21.197c.11-.101.252-.077.372-.057.144.13.018.218-.014.32-.084.172-.18.134-.31.076-.364-.241-.048-.339-.048-.339zM242.504 129.6c.11-.1.252-.077.371-.057.145.13.019.218-.013.32-.084.173-.18.135-.31.077-.364-.242-.048-.34-.048-.34z"/>
  <text xml:space="preserve" x="235.459" y="144.879" stroke-width=".265" font-family="'Caveat',cursive" font-size="10.583" font-weight="400" letter-spacing="0" style="line-height:1.25" transform="translate(4.549 -67.617)" word-spacing="0"><tspan x="235.459" y="144.879">c</tspan></text>
  <path fill="none" stroke="#000" stroke-width=".265" d="M242.68 65.246c.09-5.257.65-9.415.268-15.77-.624-9.354-2.268-16.78-1.87-28.063"/>
  <path fill="none" stroke="#000" stroke-width=".256" d="M242.55 82.234c-.44 4.565-1.335 2.026.137 19.497-.252 8.902-.65 17.883-.005 26.681l-.067 1.278"/>
  <path stroke="#000" stroke-width=".115" d="M242.49 65.122c.111-.1.253-.077.372-.057.145.13.018.218-.014.32-.084.173-.179.135-.309.077-.365-.242-.048-.34-.048-.34zM242.424 81.895c.11-.101.252-.077.371-.057.145.13.019.217-.014.32-.083.172-.178.134-.308.076-.365-.241-.05-.34-.05-.34z"/>
  <text xml:space="preserve" x="107.437" y="73.528" stroke-width=".265" font-family="'Caveat',cursive" font-size="10.583" font-weight="400" letter-spacing="0" style="line-height:1.25" transform="translate(4.549 -67.617)" word-spacing="0"><tspan x="107.437" y="73.528">a</tspan></text>
  <path fill="none" stroke="#000" stroke-width=".265" d="M104.235 3.24A628.047 628.047 0 0 1 67.62 2.17c-17.016-.865-34.032.392-51.048.802M126.418 3.506c29.456.098 58.61 1.314 85.26.802"/>
  <path stroke="#000" stroke-width=".115" d="M16.481 2.748c.11-.1.252-.077.371-.057.145.13.019.218-.014.32-.083.173-.178.135-.308.077-.365-.242-.049-.34-.049-.34zM104.045 3.05c.11-.102.252-.078.371-.058.145.13.019.218-.013.32-.084.173-.18.134-.31.076-.364-.241-.048-.339-.048-.339zM126.229 3.35c.11-.101.251-.077.37-.057.145.13.02.217-.013.32-.084.172-.179.134-.309.076-.365-.242-.048-.34-.048-.34zM211.554 4.051c.11-.1.252-.077.372-.057.144.13.018.218-.014.32-.084.173-.18.134-.31.076-.364-.24-.048-.339-.048-.339z"/>
</svg>
