<svg xmlns="http://www.w3.org/2000/svg" viewBox="0 0 216.876 75.562">
  <path fill="#f7fefe" stroke="#000" stroke-width=".265" d="M16.253 27.933c-.47 7.594-1.622 17.564-.586 22.178.637 6.812 5.54 4.678 6.114 6.714 2.967 10.52 1.08 7.16 28.356 6.965 29.62-.212 81.364.73 108.627-.424 27.263-1.153 27.993 3.402 26.875-6.71 11.065-1.07 8.44-16.033 8.099-23.025-.306-7.416-12.513-2.872-15.868-5.344-3.972-2.926-5.628-8.04-7.205-10.348-1.877-5.403-132.023-5.897-136.214-2.375-3.293 2.624-1.787 7.87-5.272 9.707-3.484 1.836-10.06-.537-12.926 2.662z"/>
  <text xml:space="preserve" x="98.088" y="173.254" stroke-width=".265" font-family="'Caveat',cursive" font-size="10.583" font-weight="400" letter-spacing="0" style="line-height:1.25" transform="translate(3.452 -97.852)" word-spacing="0"><tspan x="98.088" y="173.254">b</tspan></text>
  <text xml:space="preserve" x="-23.787" y="142.785" stroke-width=".265" font-family="'Caveat',cursive" font-size="10.583" font-weight="400" letter-spacing="0" style="line-height:1.25" transform="translate(3.452 -97.852)" word-spacing="0"/>
  <text xml:space="preserve" x="97.019" y="103.764" stroke-width=".265" font-family="'Caveat',cursive" font-size="10.583" font-weight="400" letter-spacing="0" style="line-height:1.25" transform="translate(3.452 -97.852)" word-spacing="0"><tspan x="97.019" y="103.764">a</tspan></text>
  <path fill="none" stroke="#000" stroke-dasharray=".274 .821" stroke-width=".274" d="M31.652 64.046c.434-7.76.27-17.765 0-28.162 47.293.518 96.123-2.252 141.879 1.555-.253 20.098.084 17.48.147 25.384"/>
  <text xml:space="preserve" x="-59.334" y="154.545" stroke-width=".265" font-family="'Caveat',cursive" font-size="10.583" font-weight="400" letter-spacing="0" style="line-height:1.25" transform="translate(3.452 -97.852)" word-spacing="0"/>
  <text xml:space="preserve" x="40.368" y="152.14" stroke-width=".265" font-family="'Caveat',cursive" font-size="10.583" font-weight="400" letter-spacing="0" style="line-height:1.25" transform="translate(3.452 -97.852)" word-spacing="0"><tspan x="40.368" y="152.14">d</tspan></text>
  <text xml:space="preserve" x="209.363" y="143.865" stroke-width=".265" font-family="'Caveat',cursive" font-size="10.583" font-weight="400" letter-spacing="0" style="line-height:1.25" transform="translate(3.452 -97.852)" word-spacing="0"><tspan x="209.363" y="143.865">f</tspan></text>
  <text xml:space="preserve" x="196.395" y="123.809" stroke-width=".265" font-family="'Caveat',cursive" font-size="10.583" font-weight="400" letter-spacing="0" style="line-height:1.25" transform="translate(3.452 -97.852)" word-spacing="0"><tspan x="196.395" y="123.809">e</tspan></text>
  <path fill="none" stroke="#000" stroke-width=".265" d="M47.016 45.438c-.356-4.787-.121-6.027 0-7.943M47.016 56.96c.372 2.993.098 3.728 0 5.078M113.3 73.264c25.926-.35 52.086.469 77.775-1.07M96.461 73.531c-13.943-.623-19.383-1.698-56.4-.57-13.225.403-18.105-.183-22.979-.232M2.52 35.806c.362-1.115.378-4.305-.266-11.453M2.52 46.804c-.164 5.245-.08 7.015 0 8.82"/>
  <path fill="none" stroke="#000" stroke-width=".304" d="M97.984 2.425c-20.41.87-42.497.904-63.8 1.329"/>
  <path stroke="#000" stroke-width=".265" d="M33.918 3.519a.65.65 0 0 0-.162.184c-.028.067.006.122.134.15.129.028.35.028.429-.044.078-.073.01-.218-.073-.284-.083-.067-.183-.056-.233-.05-.05.005-.05.005-.095.044zM97.96 2.424c-.01.022-.032.067-.023.097.01.03.048.046.127.035.079-.01.197-.047.24-.1.043-.055.01-.127-.057-.17a.299.299 0 0 0-.24-.03c-.07.025-.107.09-.108.121 0 .031.036.028.054.027.018-.002.018-.002.008.02z"/>
  <path fill="none" stroke="#000" stroke-width=".291" d="M111.341 2.706c19.211 1.821 38.01 1.977 56.936 2.648"/>
  <path stroke="#000" stroke-width=".265" d="M79.536 98.186c-.011.022-.033.066-.024.096.01.03.048.046.127.036.078-.01.197-.047.24-.101.042-.054.01-.126-.057-.169a.299.299 0 0 0-.24-.03c-.07.025-.107.09-.108.12 0 .032.036.029.054.027.018-.001.018-.001.008.02z" transform="matrix(1.22429 0 0 .99085 13.849 -94.56)"/>
  <path stroke="#000" stroke-width=".265" d="M79.536 98.186c-.011.022-.033.066-.024.096.01.03.048.046.127.036.078-.01.197-.047.24-.101.042-.054.01-.126-.057-.169a.299.299 0 0 0-.24-.03c-.07.025-.107.09-.108.12 0 .032.036.029.054.027.018-.001.018-.001.008.02z" transform="matrix(1.22429 0 0 .99085 70.713 -91.96)"/>
  <path stroke="#000" stroke-width=".265" d="M190.943 72.196c-.01.022-.032.066-.023.096.009.03.048.046.127.036.078-.01.197-.047.24-.101.042-.054.01-.126-.058-.169a.299.299 0 0 0-.24-.03c-.07.025-.107.09-.107.12 0 .032.036.029.054.027.018-.001.018-.001.007.02zM113.01 73.253c-.011.022-.033.066-.024.097.009.03.048.046.127.035.078-.01.197-.047.24-.1.042-.055.01-.127-.058-.17a.299.299 0 0 0-.24-.03c-.07.025-.106.09-.107.12 0 .032.036.03.054.028.018-.002.018-.002.007.02zM96.438 73.507c-.011.022-.033.066-.024.096.01.03.048.046.127.036.078-.01.197-.047.24-.1.042-.055.01-.127-.057-.17a.299.299 0 0 0-.24-.03c-.07.025-.107.09-.108.12 0 .032.036.029.054.027.018-.001.018-.001.008.02zM16.72 72.74c-.01.021-.032.065-.023.096.009.03.048.046.126.035.079-.01.197-.047.24-.1.043-.055.01-.127-.057-.17a.299.299 0 0 0-.24-.03c-.07.025-.107.09-.107.12 0 .032.036.03.054.028.018-.002.018-.002.007.02zM46.85 37.591c-.01.022-.032.066-.023.097.009.03.048.045.126.035.079-.01.198-.047.24-.1.043-.055.01-.127-.057-.17a.299.299 0 0 0-.24-.03c-.07.025-.107.09-.107.12 0 .032.036.029.054.027.018-.001.018 0 .007.021zM46.9 45.559c-.01.022-.032.066-.023.097.009.03.048.045.126.035.08-.01.198-.047.24-.1.043-.055.01-.127-.057-.17a.299.299 0 0 0-.24-.03c-.07.025-.107.09-.107.12 0 .032.036.029.054.027.018-.001.018 0 .007.021zM46.85 57.018c-.01.022-.032.066-.023.097.009.03.048.046.126.035.079-.01.198-.047.24-.1.043-.055.01-.127-.057-.17a.299.299 0 0 0-.24-.03c-.07.025-.107.09-.107.12 0 .032.036.03.054.028.018-.002.018-.002.007.02zM46.867 62.13c-.011.022-.033.066-.024.096.01.03.048.046.127.036.079-.01.197-.047.24-.101.043-.054.01-.126-.057-.169a.299.299 0 0 0-.24-.031c-.07.026-.107.09-.108.121 0 .032.036.029.054.027.019-.001.019-.001.008.02zM2.403 55.709c-.011.022-.033.066-.024.096.01.03.048.046.127.036.078-.01.197-.047.24-.1.042-.055.01-.127-.057-.17a.299.299 0 0 0-.24-.03c-.07.025-.107.09-.108.12 0 .032.036.029.054.027.018-.001.018-.001.008.02zM2.424 46.844c-.011.022-.033.066-.024.097.01.03.048.046.127.035.078-.01.197-.047.24-.1.042-.055.01-.127-.057-.17a.299.299 0 0 0-.24-.03c-.07.025-.107.09-.108.12 0 .032.036.03.054.028.018-.002.018-.002.008.02zM2.329 35.826c-.01.022-.032.067-.023.097.009.03.048.046.126.035.079-.01.197-.046.24-.1.043-.055.01-.127-.057-.17a.299.299 0 0 0-.24-.03c-.07.025-.107.09-.107.121s.036.028.054.027c.018-.002.018-.002.007.02zM2.132 24.425c-.011.022-.033.067-.024.097.01.03.048.046.127.036.079-.01.197-.047.24-.101.042-.054.01-.126-.057-.17a.299.299 0 0 0-.24-.03c-.07.025-.107.09-.108.121 0 .031.036.028.054.027.018-.002.018-.001.008.02z"/>
  <text xml:space="preserve" x="-3.994" y="141.609" stroke-width=".265" font-family="'Caveat',cursive" font-size="10.583" font-weight="400" letter-spacing="0" style="line-height:1.25" transform="translate(3.452 -97.852)" word-spacing="0"><tspan x="-3.994" y="141.609">c</tspan></text>
  <path fill="none" stroke="#000" stroke-width=".265" d="M202.86 27.227c-.063 1.008-.126 2.016-.22 2.488-.095.473-.22.41-.347.347M202.86 18.156v-5.103"/>
  <path stroke="#000" stroke-width=".265" d="M79.536 98.186c-.011.022-.033.066-.024.096.01.03.048.046.127.036.078-.01.197-.047.24-.101.042-.054.01-.126-.057-.169a.299.299 0 0 0-.24-.03c-.07.025-.107.09-.108.12 0 .032.036.029.054.027.018-.001.018-.001.008.02z" transform="matrix(1.22429 0 0 .99085 105.35 -84.28)"/>
  <path stroke="#000" stroke-width=".265" d="M79.536 98.186c-.011.022-.033.066-.024.096.01.03.048.046.127.036.078-.01.197-.047.24-.101.042-.054.01-.126-.057-.169a.299.299 0 0 0-.24-.03c-.07.025-.107.09-.108.12 0 .032.036.029.054.027.018-.001.018-.001.008.02z" transform="matrix(1.22429 0 0 .99085 105.302 -79.131)"/>
  <path stroke="#000" stroke-width=".265" d="M79.536 98.186c-.011.022-.033.066-.024.096.01.03.048.046.127.036.078-.01.197-.047.24-.101.042-.054.01-.126-.057-.169a.299.299 0 0 0-.24-.03c-.07.025-.107.09-.108.12 0 .032.036.029.054.027.018-.001.018-.001.008.02z" transform="matrix(1.22429 0 0 .99085 104.948 -67.083)"/>
  <path stroke="#000" stroke-width=".265" d="M79.536 98.186c-.011.022-.033.066-.024.096.01.03.048.046.127.036.078-.01.197-.047.24-.101.042-.054.01-.126-.057-.169a.299.299 0 0 0-.24-.03c-.07.025-.107.09-.108.12 0 .032.036.029.054.027.018-.001.018-.001.008.02z" transform="matrix(1.22429 0 0 .99085 105.279 -70.036)"/>
  <path fill="none" stroke="#000" stroke-width=".265" d="M215.42 35.338c-.02-3.563-.308-5.523-.33-9.51-.022-3.986.22-10 .196-14.41M214.484 49.637c.122 2.26.59 4.521.367 6.782l-.367 7.25"/>
  <path stroke="#000" stroke-width=".265" d="M79.536 98.186c-.011.022-.033.066-.024.096.01.03.048.046.127.036.078-.01.197-.047.24-.101.042-.054.01-.126-.057-.169a.299.299 0 0 0-.24-.03c-.07.025-.107.09-.108.12 0 .032.036.029.054.027.018-.001.018-.001.008.02z" transform="matrix(1.22429 0 0 .99085 117.694 -85.98)"/>
  <path stroke="#000" stroke-width=".265" d="M79.536 98.186c-.011.022-.033.066-.024.096.01.03.048.046.127.036.078-.01.197-.047.24-.101.042-.054.01-.126-.057-.169a.299.299 0 0 0-.24-.03c-.07.025-.107.09-.108.12 0 .032.036.029.054.027.018-.001.018-.001.008.02z" transform="matrix(1.22429 0 0 .99085 117.962 -61.891)"/>
  <path stroke="#000" stroke-width=".265" d="M79.536 98.186c-.011.022-.033.066-.024.096.01.03.048.046.127.036.078-.01.197-.047.24-.101.042-.054.01-.126-.057-.169a.299.299 0 0 0-.24-.03c-.07.025-.107.09-.108.12 0 .032.036.029.054.027.018-.001.018-.001.008.02z" transform="matrix(1.22429 0 0 .99085 116.86 -47.693)"/>
  <path stroke="#000" stroke-width=".265" d="M79.536 98.186c-.011.022-.033.066-.024.096.01.03.048.046.127.036.078-.01.197-.047.24-.101.042-.054.01-.126-.057-.169a.299.299 0 0 0-.24-.03c-.07.025-.107.09-.108.12 0 .032.036.029.054.027.018-.001.018-.001.008.02z" transform="matrix(1.22429 0 0 .99085 117.026 -33.494)"/>
</svg>
