<svg xmlns="http://www.w3.org/2000/svg" xmlns:osb="http://www.openswatchbook.org/uri/2009/osb" xmlns:xlink="http://www.w3.org/1999/xlink" viewBox="0 0 3457.333 3458.667">
  <defs>
    <linearGradient osb:paint="solid" id="a"><stop offset="0" stop-color="#aab1b1"/></linearGradient><linearGradient xlink:href="#a" id="c" x1="521.367" x2="692.793" y1="1685.233" y2="1685.233" gradientTransform="rotate(-20 1736.55 1749.388)" gradientUnits="userSpaceOnUse"/><linearGradient xlink:href="#a" id="d" x1="564.092" x2="711.623" y1="1509.488" y2="1509.488" gradientTransform="rotate(-20 1736.55 1749.388)" gradientUnits="userSpaceOnUse"/><linearGradient xlink:href="#a" id="e" x1="620.274" x2="794.836" y1="1347.389" y2="1347.389" gradientTransform="rotate(-20 1723.802 1817.794)" gradientUnits="userSpaceOnUse"/>
    <linearGradient xlink:href="#a" id="f" x1="699.864" x2="832.822" y1="1191.768" y2="1191.768" gradientTransform="rotate(-20 1738.428 1806.945)" gradientUnits="userSpaceOnUse"/><linearGradient xlink:href="#a" id="g" x1="760.218" x2="940.631" y1="1061.728" y2="1061.728" gradientTransform="rotate(-20 1686.063 1791.37)" gradientUnits="userSpaceOnUse"/>
    <linearGradient xlink:href="#a" id="i" x1="1090.948" x2="1259.058" y1="803.825" y2="803.825" gradientTransform="matrix(.99963 -.36384 .42876 1.17801 -663.419 501.437)" gradientUnits="userSpaceOnUse"/><linearGradient xlink:href="#a" id="h" x1="970.352" x2="1055.471" y1="909.603" y2="909.603" gradientTransform="rotate(-20 1668.609 1786.177)" gradientUnits="userSpaceOnUse"/>
    <linearGradient xlink:href="#a" id="b" x1="521.771" x2="697.318" y1="1890.3" y2="1890.3" gradientTransform="rotate(-20 1736.55 1749.388)" gradientUnits="userSpaceOnUse"/>
  </defs>
  <path fill="#F7FEFE" stroke="#000" stroke-width="10" d="M368.588 1221.357c24.547-67.629 51.999-121.766 83.437-177.354 31.438-55.588 66.863-112.629 99.995-160.806 33.132-48.178 63.971-87.497 99.04-124.841 35.067-37.345 74.366-72.718 126.911-114.418 52.546-41.699 118.342-89.727 181.24-129.174 62.897-39.448 122.898-70.316 178.844-97.168 55.946-26.85 109.56-50.444 163.523-67.576 53.963-17.133 109.137-28.185 165.277-36.578 56.14-8.394 113.25-14.13 174.586-17.894 61.337-3.763 126.905-5.555 187.076-2.874 60.17 2.68 114.947 9.834 186.036 24.593 71.09 14.76 158.493 37.127 224.43 59.783 65.935 22.655 110.406 45.598 166.074 74.5 55.668 28.9 122.535 63.758 182.717 105.063 60.183 41.304 113.682 89.054 166.458 143.087 52.776 54.033 104.829 114.35 149.229 172.936 44.4 58.587 81.147 115.444 114.03 178.223 32.883 62.779 61.9 131.479 85.602 196.596 23.7 65.118 42.084 126.651 57.489 193.786 15.405 67.134 27.83 139.865 33.97 200.84 6.14 60.974 5.994 110.19 2.144 165.77-3.85 55.582-11.403 117.525-20.817 179.272-9.413 61.748-20.979 124.895-40.384 189.422-19.406 64.527-46.266 129.94-76.292 193.543-30.027 63.603-62.953 124.749-101.036 182.757-38.083 58.007-81.321 112.873-114.778 154.648-33.456 41.775-57.129 70.457-107.38 114.333-50.252 43.875-127.076 102.938-213.45 156.45-86.374 53.51-182.293 101.465-270.958 136.289-88.665 34.824-171.886 56.999-258.554 72.49-86.667 15.491-177.685 24.54-276.721 23.965-99.037-.575-206.09-10.773-306.34-33.982-100.252-23.21-193.7-59.43-288.762-105.596-95.062-46.168-191.738-102.282-281.934-172.294-90.196-70.01-173.912-153.919-234.587-224.14-60.674-70.222-98.308-126.757-138.564-202.904-40.257-76.148-83.138-171.91-116.154-277.782-33.016-105.872-56.168-221.858-62.73-347.392-6.561-125.534 3.468-260.62 19.304-368.722 15.837-108.102 37.48-189.222 62.029-256.851z"/>
  <path fill="none" stroke="#000" stroke-width="10" d="M627.391 1076.493c28.621-49.546 58.734-93.616 92.714-132.571s71.829-72.798 114.468-111.394c42.64-38.595 90.071-81.946 143.987-122.639 53.915-40.692 114.317-78.73 182.13-112.943 67.811-34.213 143.037-64.603 209.725-85.364 66.689-20.761 124.843-31.894 185.01-40.249 60.168-8.354 122.352-13.93 189.168-13.669 66.815.263 138.265 6.363 208.83 18.304 70.564 11.941 140.245 29.722 234.742 71.58 94.497 41.858 213.81 107.793 305.415 174.783 91.605 66.99 155.5 135.035 214.767 208.278 59.266 73.243 113.901 151.681 157.502 230.124 43.6 78.442 76.165 156.888 98.83 235.443 22.664 78.556 35.723 159.049 43.96 225.782 8.235 66.733 11.795 120.619 9.84 185.543-1.954 64.925-9.422 140.884-27.52 226.232-18.1 85.348-46.827 180.082-83.17 263.542-36.345 83.461-80.303 155.645-145.848 234.685-65.544 79.04-152.672 164.93-248.505 237.936-95.833 73.007-200.368 133.127-314.575 177.705-114.206 44.578-238.082 73.612-353.466 86.01-115.384 12.399-222.274 8.161-315.878-6.431-93.603-14.592-173.918-39.539-252.302-70.205-78.384-30.666-154.836-67.052-233.065-119.346-78.23-52.294-158.235-120.496-236.474-205.896-78.239-85.4-154.711-187.998-210.197-281.177-55.486-93.18-89.986-176.942-114.42-268.881-24.433-91.94-38.8-192.06-42.373-290.088-3.573-98.027 3.648-193.965 22.751-286.2 19.104-92.233 50.09-180.768 79.147-252.546 29.057-71.777 56.186-126.802 84.807-176.348z"/>
  <path fill="none" stroke="#000" stroke-linejoin="round" stroke-width="10" d="M1393.285 1856.23c-10.407-53.402-13.651-128.474 3.285-196.341 16.935-67.868 54.052-128.533 109.335-173.737 55.283-45.204 128.737-74.95 194.865-83.467 66.128-8.517 124.934 4.193 178.749 30.758 53.814 26.565 102.64 66.987 137.09 121.67 34.452 54.682 54.529 123.627 59.258 182.104 4.73 58.478-5.888 106.488-27.301 152.409-21.413 45.92-53.619 89.747-103.59 127.5-49.97 37.753-117.702 69.428-179.722 80.965-62.02 11.537-118.326 2.935-171.149-20.76-52.823-23.694-104.679-64.46-138.762-100.215-34.083-35.754-51.652-67.485-62.058-120.887z"/>
  <path fill="none" stroke="#000" stroke-width="10" d="M1150.333 1669.748c6.153-31.336 14.843-62.592 27.116-99.164 12.272-36.572 28.129-78.465 47.893-113.75 19.765-35.287 43.438-63.97 72.024-92.936 28.586-28.965 62.088-58.215 96.877-83.92 34.79-25.706 70.87-47.868 109.488-64.432 38.618-16.564 79.777-27.531 119.123-33.826 39.346-6.294 76.883-7.916 116.15-6.156 39.269 1.761 80.27 6.904 117.97 16.76 37.7 9.856 72.1 24.426 109.158 43.546 37.058 19.119 76.776 42.789 107.657 65.06 30.881 22.27 51.701 41.983 78.493 72.866 26.792 30.883 58.943 72.356 83.687 121.041 24.743 48.685 42.077 104.58 51.274 151.901 9.197 47.32 10.255 86.064 8.213 125.937-2.042 39.874-7.185 80.873-14.625 119.701-7.439 38.828-17.174 75.48-32.389 108.107-15.214 32.628-35.906 61.228-72.304 99.058-36.399 37.83-88.498 84.884-142.094 120.947-53.596 36.062-108.683 61.129-169.534 77.257-60.852 16.128-127.463 23.316-188.198 21.844-60.735-1.472-115.592-11.605-171.702-34.828-56.11-23.222-113.472-59.532-162.42-104.425-48.946-44.892-89.479-98.365-120.062-147.934-30.583-49.57-51.217-95.235-63.756-139.332-12.538-44.097-16.98-86.627-17.394-123.599-.414-36.971 3.202-68.388 9.355-99.723z"/>
  <path fill="none" stroke="#000" stroke-width="10" d="M803.714 1351.437c5.675-16.111 16.54-44.146 35.339-76.572 18.798-32.425 45.531-69.246 74.759-107.475s60.953-77.87 100.29-117.27c39.336-39.4 86.286-78.561 136.216-112.286 49.93-33.724 102.845-62.013 160.59-88.047 57.746-26.034 120.327-49.815 173.486-63.645 53.158-13.83 96.896-17.71 141.72-19.978 44.825-2.268 90.74-2.926 144.466-1.412 53.726 1.515 115.268 5.202 170.89 16.06 55.623 10.857 105.328 28.886 167.077 56.577 61.75 27.69 135.544 65.044 191.9 102.724 56.355 37.681 95.271 75.689 138.42 121.187 43.147 45.498 90.525 98.485 125.86 147.328 35.336 48.843 58.628 93.54 77.916 139.696 19.289 46.155 33.996 91.971 46.857 136.955 12.862 44.984 23.587 88.235 30.224 135.026 6.636 46.79 9.275 98.918 6.833 151.478-2.44 52.56-9.916 106.448-21.096 161.186-11.18 54.737-26.066 110.32-46.791 165.02-20.726 54.7-47.29 108.513-74.946 155.2-27.655 46.688-56.4 86.245-94.527 131.727-38.127 45.483-85.635 96.886-134.274 139.673-48.64 42.786-98.409 76.953-157.081 107.338-58.672 30.385-126.244 56.986-191.766 76.82-65.522 19.835-128.99 32.903-200.437 37.838-71.446 4.934-150.868 1.736-215.23-6.945-64.362-8.68-113.663-22.842-173.598-44.17-59.935-21.328-130.505-49.822-183.918-78.039-53.413-28.217-89.668-56.157-128.1-87.318-38.43-31.162-79.038-65.544-109.374-95.138-30.335-29.593-50.4-54.396-75.099-90.555-24.698-36.16-54.033-83.676-81.435-136.91-27.403-53.236-52.874-112.191-69.2-163.94-16.327-51.748-23.51-96.29-29.04-140.43-5.53-44.138-9.41-87.877-10.913-131.976-1.503-44.1-.63-88.565 5.316-138.386s16.965-105.003 28.149-148.704c11.183-43.7 22.531-75.925 28.446-94.13 5.915-18.206 6.397-22.395 12.071-38.507z"/>
  <path fill="none" stroke="#000" stroke-width="10" d="M988.424 2069.805c-21.842-46.229-33.773-79.01-44.095-118.394-10.322-39.385-19.035-85.378-22.46-135.146-3.426-49.769-1.613-101.906 1.636-146.732 3.249-44.826 7.91-81.64 19.98-125.663 12.068-44.023 31.547-95.26 51.228-139.044 19.682-43.784 39.567-80.119 62.795-114.157 23.229-34.038 49.801-65.784 83.38-97.57 33.58-31.786 74.169-63.616 120.757-94.118 46.588-30.5 99.18-59.676 147.18-82.163 48.001-22.487 91.414-38.288 131.242-48.771 39.828-10.483 76.075-15.65 120.697-19.851 44.623-4.202 97.625-7.44 153.406-1.656 55.782 5.783 114.347 20.587 162.802 36.562 48.455 15.974 86.802 33.12 123.521 53.8 36.72 20.679 73.976 46.385 110.835 74.607 36.86 28.222 74.405 59.706 114.654 108.265 40.25 48.56 83.201 114.195 113.627 174.356 30.425 60.162 48.323 114.85 61.674 183.233 13.351 68.383 22.155 150.459 27.085 205.352 4.93 54.894 5.985 82.602.396 112.73-5.59 30.128-17.823 62.672-32.11 101.985-14.285 39.313-30.623 85.39-50.306 123.658-19.683 38.268-42.71 68.721-71.98 105.461-29.27 36.74-64.778 79.763-106.711 118.567-41.933 38.805-90.7 73.683-138.538 102.131-47.838 28.449-94.952 50.613-154.393 69.238s-131.205 33.708-198.14 40.011c-66.936 6.303-129.04 3.824-183.977-3.772-54.938-7.596-102.707-20.308-150.197-39.143-47.49-18.835-94.699-43.791-137.035-70.521-42.337-26.73-79.801-55.234-117.59-90.14-37.787-34.908-75.9-76.219-110.833-126.713-34.933-50.494-66.687-110.173-88.53-156.402z"/>
  <path fill="url(#b)" stroke="#000" stroke-linejoin="round" stroke-width="5" d="M699.831 2198.813c-5.315 1.952-61.875 12.452-61.252 72.433 2.157 15.863 16.339 59.401 50.554 73.408 27.61 6.05 51.795-5.05 57.095-6.99 5.349-2.012 10.78-3.81 16.052-6.015 31.132-12.919 64.52-32.319 52.859-74.134-3.933-11.467-9.84-22.511-12.973-29.197-26.264-55.486-99.685-30.48-102.335-29.505zm10.142 25.237c16.514-5.894 45-8.56 58.174 7.97 3.779 2.697 20.292 31.036 20.697 45.581-7.938 18.956-36.82 32.285-41.775 32.894-34.706 10.783-33.683 8.916-50.51 1.432-25.45-12.332-26.872-50.982-25.02-57.506 10.076-21.507 16.26-25.856 38.434-30.371z"/>
  <path fill="url(#c)" stroke="#000" stroke-linejoin="round" stroke-width="5" d="M617.569 2028.899c-1.067.4-1.994.89-2.74 1.479-16.363 9.783-30.795 23.013-36.632 40.239-2.869 6.332-1.68 12.928-2.159 19.892-.314 8.333.15 16.797 1.596 25.006 1.805 6.982 1.496 11.357 4.45 21.212 2.141 9.34 5.298 22.003 10.4 25.276 4.837-4.422 17.597-10.507 23.417-11.71 5.424-1.974 10.846-3.947 16.265-5.93 6.147-2.248 12.29-4.502 18.446-6.725 6.172-2.21 12.328-4.47 18.502-6.677 6.61-2.447 69.989-34.34 81.577-22.143l-12.7-35.097c-8.55 5.265-17.312 10.125-26.345 14.51-6.185 2.968-22.241 8.63-28.658 11.044 6.887-17.826 19.115-30.054 43.252-53.034 10.551-9.752-10.24-53.597-10.336-32.346 0 0-24.044 22.738-29.838 32.476-7.145 8.891-16.13 28.798-16.858 27.339-1.822-5.487-.656-11.606-7.796-24.488-5.798-14.482-10.158-16.267-15.417-18.863-6.655-2.722-20.96-4.269-28.427-1.46zm1.916 31.47c4.025-1.656 16.97-2.96 19.904.492 4.092 3.988 15.85 27.813 14.35 49.803-5.419 1.96-14.668 6.832-20.083 8.802-4.576 1.665-17.55 8.264-21.898 6.069-4.67-2.847-20.85-49.15 7.727-65.165z"/>
  <path fill="url(#d)" stroke="#000" stroke-linejoin="round" stroke-width="5" d="M697.786 1926.879c-7.84-8.358-134.293-.83-140.969 8.578l-2.066-45.843c4.38 8.122 131.473 2.29 140.576-2.815z"/>
  <path fill="url(#e)" stroke="#000" stroke-linejoin="round" stroke-width="5" d="M527.154 1749.321c2.912 28.727 21.42 51.41 41.683 54.012 5.353 1.698 11.046 1.192 16.55.665 7.19-.995 66.391-5.097 77.015-48.33-.567-8.265-1.805-28.97-3.215-34.827-1.754-6.188-4.025-12.22-6.221-18.262l-2.676-7.313c1.121-.408 21.261-3.293 22.386-3.692 2.89-13.04.164-7.877 2.309-24.533-10.173 8.537-85.6 8.901-89.35 11.313-6.704 5.403-3.222 12.725-2.746 32.315-.025 4.287 2.784 16.524 3.526 20.708 1.92 5.926 21.748.302 22.899-.121 1.013 2.848-4.333-23.964-3.206-21.166 13.483-9.525 23.361 32.133 23.084 43.522-1.272 4.396-7.89 22.967-46.255 21.67-4.43-1.268-10.433-1.9-15.557-11.477-2.51-4.826-3.848-18.309-4.592-23.705-.577-5.013-.767-10.075-.92-15.116.028-5.534-.541-11.063-.368-16.604-.17-6.52.883-23.67 6.765-27.3 1.366-8.281-37.021 2.978-37.021 2.978-2.293 2.421-10.247 35.3-4.09 65.263z"/>
  <path fill="url(#f)" stroke="#000" stroke-linejoin="round" stroke-width="5" d="M551.184 1525.803c8.033 2.656 36.141 9.828 44.422 11.294 5.065.157 9.611 2.687 14.552 3.335 4.592.314 9.147 1.302 13.743 1.96 4.951.31 9.78 2.13 14.418 3.838 3.868 1.34 7.746 2.44 11.776 3.203 4.214.575 8.562.578 12.495 2.313 3.924 1.244 7.847 2.61 11.928 3.303 3.042.77 5.956 1.863 8.965 2.735l-5.883 35.08s-25.528-3.652-28.45-4.306a99.139 99.139 0 0 1-12.538-3.689c-3.857-1.171-8.04-1.005-11.973-1.92-4.122-.989-8.185-2.066-12.167-3.533-4.496-1.452-8.898-3.275-13.691-3.377-4.692-.554-9.273-1.65-13.984-2.038-4.797-1.139-9.426-3.001-14.38-3.478-8.294-1.458-16.4-3.521-24.632-5.242z"/>
  <path fill="url(#g)" stroke="#000" stroke-linejoin="round" stroke-width="5" d="M591.512 1346.43c2.751.62 5.433 1.535 7.92 2.887 4.16 1.397 58.611 16.128 68.82 14.06 49.771-2.873-57.552 37.08-64.377 39.714-14.906 5.468-29.813 28.489-29.954 41.4 6.069-8.16 116.063 30.036 118.418 42.13l11.69-46.087c-8.15 3.793-21.804-1.427-29.743-2.6-5.531-1.044-10.917-2.516-16.072-4.778-4.342-1.671-8.028-4.501-12.151-6.631-4.638-1.774-9.102-3.71-13.387-6.2a45.954 45.954 0 0 0-1.976-.825l3.645-1.327c5.31-1.932 73.554-35.927 84.606-48.066 5.677 12.152 6.57-15.313 17.81-38.603-10.786 10.97-78.456-4.941-84.587-6.625-5.032-1.23-9.801-3.27-14.761-4.706-4.121-1.076-8.11-2.52-12.084-4.034-2.65-1.298-15.998-5.457-18.824-6.283z"/>
  <path fill="url(#h)" stroke="#000" stroke-linejoin="round" stroke-width="5" d="M673.61 1147.107c-7.966 11.486 82.454 121.25 82.023 136.642l15.024-32.4c-5.347-8.544-21.672-36.318-24.69-41.546 0 0 23.063-37.778 24.73-41.946 2.542.508 38.414 7.315 41.86 9.025l23.015-32.383c-7.88 4.338-114.881-11.11-122.246-10.806-6.911.4-32.557-.328-39.715 13.414zm33.536 17.775c1.094-.113 37.78 1.053 43.586 1.08 4.289 2.396-14.573 30.685-15.741 29.127-2.69-4.092-24.751-27.028-27.845-30.207z"/>
  <path fill="url(#i)" stroke="#000" stroke-linejoin="round" stroke-width="5.774" d="m781.996 964.053-27.787 37.55c7.177 8.212 14.71 15.75 22.866 22.628 5.256 5.066 10.982 9.303 16.342 14.209 4.662 5.162 10.045 9.324 15.476 13.288 5.05 4.535 10.238 8.819 15.472 13.072 4.432 4.842 9.554 8.734 14.075 13.447 5.385 5.155 10.95 9.94 16.236 15.243 5.907 7.138 15.365 18.982 18.585 9.376 19.04-16.11 60.571-93.556 69.77-96.455-6.514-6.68-24.014-21.754-28.36-26.52-5.202 13.932-13.3 19.906-19.984 29.77-1.462 4.242-22.582 36.13-27.894 30.929-4.702-4.838-10.811-9.06-15.426-14.024-5.287-4.345-10.583-8.627-15.688-13.25-5.264-3.876-10.506-7.876-15.017-12.915-5.426-5.002-11.276-9.17-16.669-14.226-8.008-6.521-15.427-13.676-21.997-22.122z"/>
  <path fill="#aab1b1" stroke="#000" stroke-linejoin="round" stroke-width="5" d="M1157.446 688.866c3.435 11.29 10.167 15.618.279 27.878.553 10.125 4.925 27.04 21.726 34.714-19.642 12.902-42.24-3.242-44.662-10.056-3.196-8.016-8.74-36.403-6.207-38.41zM1378.245 602.033l-34.779 13.421c6.793 9.214-20.235 79.48-20.663 80.324-.836-3.958-1.68-7.914-2.12-11.947-.937-7.598-12.408-47.595-11.935-59.366l-38.028 14.18c11.124 10.696 14.065 43.303 16.833 52.948 2.336 7.159 2.986 14.727 3.95 22.161.994 6.801 2.74 13.403 3.662 20.209.826 5.202 13.668 57.563 10.911 69.008l38.321-13.455c-12.006-13.113-15.943-46.572-17.028-52.447-.307-1.96-.67-3.918-1.017-5.877a306.41 306.41 0 0 1 6.316 1.586c5.933 1.903 11.616 4.538 17.302 7.073 5.02 1.777 9.807 4.086 14.66 6.258 4.361 2.196 8.679 4.5 13.14 6.491 4.22 2.043 7.944 4.899 12.158 6.967 3.99 2.379 6.09 3.51 6.09 11.183 3.706 3.292 51.306-16.714 49.95-17.327-39.935-17.277-105.696-42.618-107.805-51.01 3.058-5.147 35.269-89.245 40.082-100.38zM1529.075 559.935c-7.892 8.652 2.829 46.163 3.33 57.295.364 8.327 5.686 39.705 7.129 47.211 1.17 5.944 10.488 56.2 17.09 61.47l-51.162 6.983c3.665-9.625 1.609-53.218.701-60.771-2.133-8.394-13.454-91.79-22.61-104.402zM1661.277 550.146c.778 11.23-8.357 36.075-9 47.291-.1 8.596-.718 17.151-1.408 25.712.068 5.293-.172 10.548-.605 15.819-.64 4.535-.966 8.89-.235 13.427.529 4.63 1.227 9.294 1.314 13.96.099 3.222-.251 7.682 3.003 9.483 4.22-.118 8.514-.425 12.705-1.186 7.055-1.553 8.897.97 15.71-1.403 5.649-2.005 15.137-1.73 20.765-3.795 5.501-1.646 11.883-1.554 17.64-1.957 5.412-.917 17.602 1.12 23.05.695 3.757.039-4.264 22.671-.555 22.977l-1.377 20.925c-3.407-.583-41.027-3.508-46.706-1.598-7.01 2.31-39.208 1.644-46.482 2.966-5.043.646-21.001 1.653-25.8-.447-4.196-2.978-1.639-11.76-1.675-16.898.027-4.523-.562-8.897-.707-13.432-1.106-4.672-1.963-9.422-.495-14.13.042-5.335 1.285-10.584.623-15.95.397-8.697 2.076-17.32 1.802-26.076.65-10.94-6.324-64.146-7.508-75.092zM1836.402 565.841c-11.212-1.106-8.936-1.112-25.22-1.31-.267 2.378-4.86 42.702-5.643 45.005-1.373 4.967-2.415 10.023-2.993 15.146-.501 5.002-7.696 76.055-4.14 85.415l37.418 4.92c-9.095-5.071 1.54-62.952 1.43-70.296.76-6.066 2.87-27.381 7.311-22.076 4.675 5.292 9.508 10.485 13.793 16.103 3.073 4.615 5.278 9.649 8.236 14.333 3.352 5.75 5.92 11.853 9.296 17.595 3.342 5.651 5.981 11.666 8.442 17.74 3.313 6.308 16.946 34.117 20.181 40.493 17.825 2.867 20.973 4.328 33.022 5.486-6.841-10.559-1.642-50.016-1.593-50.249.17-10.321.497-20.578.156-30.9-.292-10.18 1.884-20.184 2.125-30.322.334-8.838 2.439-31.968 8.275-39.845l-35.955-6.15c6.333 11.649-.66 84.284-.76 88.438-2.743 7.182-43.716-88.476-73.38-99.526z"/>
  <path fill="#aab1b1" stroke="#000" stroke-linejoin="round" stroke-width="5.689" d="M2036.09 597.216c6.547 7.214-12.912 66.326-14.41 72.132-.513 5.31-17.71 59.974-25.933 60.992-1.05 6.66 51.824 20.26 57.952 23.38 6.038 3.238 57.85 22.284 60.51 23.017l17-35.619c-4.385 5.506-78.342-23.436-86.262-29.053-4.161-2.648 2.474-14.89 2.648-15.57 5.351.82 29.586 9.61 33.046 10.801l12.873-33.072c-3.557-1.282-27.92-12.136-35.79-12.385 1.134-3.124 4.151-15.717 4.601-17.074.421.198.844.382 1.264.585 6.327 1.878 74.698 31.215 83.252 31.775l13.38-34.486c-8.286-.147-75.1-27.908-81.244-29.131-2.693-.182-42.464-14.11-42.887-16.292z"/>
  <path fill="#aab1b1" stroke="#000" stroke-linejoin="round" stroke-width="4.713" d="M2268.992 696.238c-12.618 11.304-19.305 25.315-24.506 36.291-2.79 4.645-30.338 41.985-34.358 48.915-6.462 10.237-12.629 20.659-18.69 31.157l23.488 13.531c.065-.116 16.732-28.978 16.796-29.094.974-1.94 6.792-6.16 11.952-4.394 4.142 3.26 7.984 5.242 10.09 10.838 1.47 2.813 16.337 63.952 18.362 69.545 1.69 3.09 14.97 12.852 16.709 15.71 0 0 15.97-18.101 14.703-20.732-2.038-5.57-20.599-48.882-22.307-53.608 15.604 6.303 33.334 1.348 37.408-1.599 23.35-14.634 35.375-52.703 31.316-63.751-1.848-5.08-3.676-10.17-5.724-15.173-2.008-4.711-4.186-9.368-7.236-13.496-3.17-4.446-5.622-9.405-9.391-13.389-3.772-3.8-7.35-7.723-11.951-10.516-4.308-3.222-33.838-17.779-39.717-16.259 0 0-1.19 10.87-6.944 16.025zm18.61 19.518c4.837 1.261 7.57 3.417 11.582 6.42 4.509 2.607 7.89 6.408 11.505 10.095 3.513 3.923 14.918 20.114 16.748 24.576 3.97 7.294-8.812 34.265-18.741 37.598-5.487 1.962-11.422 1.079-17.042-.179-2.521-.523-4.973-1.32-7.384-2.249-2.638-4.498-28.12-29.333-32.199-29.821 2.315-3.974 25.61-40.542 26.133-41.22 1.204-1.6 4.86-6.602 9.397-5.22z"/>
  <path fill="#aab1b1" stroke="#000" stroke-linejoin="round" stroke-width="5" d="M2718.593 1215.976c-13.89 10.715-51.71 28.07-37.649 81.075 2.512 6.15 18.684 52.041 29.572 54.54 12.935 12.645 96.795-23.73 102.712-26.179 7.984-3.346 49.912-24.499 57.413-17.177l-14.658-40.71c-1.89 11.598-94.67 38.517-122.392 48.441-16.314.216-23.017-42.394-24.152-49.687-.584-22.215 28.83-22.692 27.523-11.887l38.238-25.273c-10.29.245-16.907-16.104-24.11-18.952-11.06-5.854-25.99 1.139-32.497 5.81zM2747.095 1469.573c3.612-10.045 41.29 2.853 45.213 3.56 0 0 10.754 44.583 10.294 44.908-4.561 3.07-32.44 30.839-39.42 24.191l9.386 34.244c2.076-11.41 66.238-42.598 72.855-45.026 8.22-3.029 54.054-26.365 61.455-46.445.528-5.432-4.666-26.898-9.347-30.005-4.929-2.43-65.497-15.055-71.178-15.034-5.262-.686-82.25-3.95-89.848-5.493zm121.041 5.39c3.67 2.55 6.469 12.854 4.535 17.717-2.456.944-32.976 12.791-38.553 15.142-1.862.902-7.814-33.531-8.923-36.055 0 0 38.544 1.509 42.941 3.196zM2778.74 1699.203c9.547-.207 19.109.756 28.623 1.552 5.007.66 9.944 1.474 14.94 1.903-4.43 5.884-7.335 13.867-6.26 23.515.058 1.776.16 3.545.286 5.31a250.087 250.087 0 0 0-2.376 4.323 547.2 547.2 0 0 0-5.766 6.6c.725-.91-2.397 2.319-3.593 3.302-3.937 2.878-7.616 6.096-11.393 9.18-2.092 1.697-16.668 12.78-19.01 14.088l-6.593 38.888c5.117 2.399 24.374-.214 25.364-3.597 34.787-42.2 28.918-37.003 34.255-23.19 2.136 5.9 9.436 18.935 29.722 28.77 5.808 2.924 22.87 4.662 28.96 1.716 60.357-7.57 51.112-118.296 33.564-145.041-4.667-1.592-9.2-3.571-14.21-1.982-5.337.787-10.674.521-16.025 1.104-5.99.408-35.977 4.91-42.062 4.277-6.1.584-58.479-8.159-68.045-8.554zm68.876 2.475c5.83.013 11.552-1.01 17.301-1.837 5.338-.653 10.719-.572 16.067-1.056 4.468-1.161 8.373-.577 12.61.936 3.994 1.46 5.739 5.175 7.459 8.776 2.644 4.86 3.43 10.137 4.396 15.487-.318 5-1.304 9.92-2.055 14.867-1.311 5.653-3.006 11.222-4.176 16.908-18.657 39.317-36.348 9.908-38.501 4.758-2.284-5.754-4.375-11.582-6.467-17.408-1.763-5.682-4.55-11.087-5.624-16.953-1.41-5.202-1.423-10.46-1.869-15.768-.231-1.59-.493-3.212-.703-4.845a40.065 40.065 0 0 0 1.551-3.817c.01-.017 0-.03.01-.047zM2744.183 2113.07c-10.232 3.409-40.039 101.423-47.318 102.113 2.666 1.786 36.382 18.916 36.382 18.916-3.837-5.965 23.704-71.319 24.649-72.635 0 0 81.455 38.022 90.705 42.885l11.996-33.76c-9.52-4.199-62.788-28.509-67.79-31.554-4.274-4.036-44.62-27.298-48.624-25.965zM2752.673 2408.877c-1.577-11.993-100.987-80.713-109.196-77.68l20.497-35.27c-1.242 3.387 97.156 71.676 111.59 70.386zM2585.545 2415.076c-98.806 66.06-113.521 181.555 10.33 179.645 59.839-23.14 89.151-61.182 92.152-74.872 1.514-3.248-29.199-37.47-32.57-40.885-3.318-3.914-27.458-31.116-31.404-34.421-3.173-3.941-28.584-34.972-38.508-29.467zm-.234 32.672c10.358.377 58.785 61.148 67.68 75.11-3.753 9.589-29.499 37.828-64.918 38.576-22.51 3.821-92.556-15.781-2.762-113.686zM1218.177 657.204c6.002 11.108 7.977 17.355-1.911 29.615.553 10.125 5.997 27.402 22.798 35.076-19.642 12.902-41.122-5.342-43.545-12.156-3.195-8.016-9.434-39.347-6.902-41.354zM2484.315 793.86c-9.439 8.386-13.432 13.58-8.333 28.483-3.983 9.326-15.008 23.698-33.42 25.163 14.045 18.843 40.47 9.046 45.076 3.471 5.745-6.44 22.323-33.747 20.63-36.499zM2434.217 768.52c-15.928-1.308-20.718 9.581-6.433 21.14-3.982 9.326-19.645 25.802-38.058 27.267 14.045 18.843 40.469 9.046 45.076 3.471 5.744-6.44 27.462-40.014-.585-51.877z"/>
</svg>
