<svg xmlns="http://www.w3.org/2000/svg" viewBox="0 0 252.721 111.345">
  <path fill="#f7fefe" fill-opacity=".941" stroke="#000" stroke-width=".265" d="M28.997 18.142c-.114 12.305-1.19 25.38.094 36.333-.336 1.092 22.065-.68 22.962.898 9.298 10.975 6.048 20.158 9.072 30.238 47.374.755 95.624 1.16 142.119 2.268 3.666-11.122 6.289-26.538 12.095-32.506 5.063-.252 11.591-.504 17.387-.756-.31-11.849-.248-24.07-.19-36.286-7.002-.332-13.138-1.357-22.489.189-1.764 4.473-3.527 11.946-5.291 11.717-47.877.784-95.754-.378-143.631-.567-2.643.175-3.554-7.443-5.292-11.34-8.945.63-17.89.151-26.836-.188z"/>
  <path fill="none" stroke="#000" stroke-dasharray=".265 1.06" stroke-width=".265" d="M74.01 85.29c1.1-4.523.507-19.218.267-30.2 43.317-2.821 79.646-.4 117.599.801.193 9.69 1.804 15.693-.267 31.27"/>
  <path fill="none" stroke="#000" stroke-width=".289" d="M56.636.835C80.69.963 105.116.77 128 1.901"/>
  <path fill="none" stroke="#000" stroke-width=".283" d="M148.912 3.24c18.884 2.438 39.333.177 59 .266"/>
  <path fill="none" stroke="#000" stroke-width=".292" d="M76.681 64.178c15.652.068 32.277-.188 45.974.532"/>
  <path fill="none" stroke="#000" stroke-width=".302" d="M143.71 66.047c15.876 1.158 29.805.367 44.691.535"/>
  <path fill="none" stroke="#000" stroke-width=".36" d="M27.772 89.033c4.815.582 9.052.833 11.39 0"/>
  <path fill="none" stroke="#000" stroke-width=".239" d="M50.223 89.3c4.733-.493 6.284-.19 8.285 0"/>
  <path fill="none" stroke="#000" stroke-width=".275" d="M26.703 108.544c30.736.178 79.196-.577 92.209.534M137.888 108.81c88.4.542 64.5-.356 96.751-.534"/>
  <path fill="none" stroke="#000" stroke-width=".265" d="M249.873 18.206c1.25 4.348.45 8.286 0 12.295M250.408 54.555c-.191-.559-.42-.395-.267-7.484M222.612 58.831c.12 3.746.229 7.457 0 10.156"/>
  <path fill="none" stroke="#000" stroke-width=".236" d="M222.613 83.485c-.424 5.549-.454 6.363-.537 7.809"/>
  <path fill="none" stroke="#000" stroke-width=".23" d="M3.45 15.566c-.082 10.357.268 21.003-.8 30.703"/>
  <path fill="none" stroke="#000" stroke-width=".19" d="M2.382 68.987c-1.368 5.168-.727 10.335 0 15.502"/>
  <text xml:space="preserve" x="109.046" y="116.326" stroke-width=".265" font-family="'Caveat',cursive" font-size="10.583" font-weight="400" letter-spacing="0" style="line-height:1.25" transform="translate(25.367 -110.414)" word-spacing="0"><tspan x="109.046" y="116.326">a</tspan></text>
  <text xml:space="preserve" x="106.908" y="179.936" stroke-width=".265" font-family="'Caveat',cursive" font-size="10.583" font-weight="400" letter-spacing="0" style="line-height:1.25" transform="translate(25.367 -110.414)" word-spacing="0"><tspan x="106.908" y="179.936">b</tspan></text>
  <text xml:space="preserve" x="100.493" y="221.63" stroke-width=".265" font-family="'Caveat',cursive" font-size="10.583" font-weight="400" letter-spacing="0" style="line-height:1.25" transform="translate(25.367 -110.414)" word-spacing="0"><tspan x="100.493" y="221.63">c</tspan></text>
  <text xml:space="preserve" x="16.036" y="202.387" stroke-width=".265" font-family="'Caveat',cursive" font-size="10.583" font-weight="400" letter-spacing="0" style="line-height:1.25" transform="translate(25.367 -110.414)" word-spacing="0"><tspan x="16.036" y="202.387">d</tspan></text>
  <text xml:space="preserve" x="221.566" y="152.14" stroke-width=".265" font-family="'Caveat',cursive" font-size="10.583" font-weight="400" letter-spacing="0" style="line-height:1.25" transform="translate(25.367 -110.414)" word-spacing="0"><tspan x="221.566" y="152.14">e</tspan></text>
  <text xml:space="preserve" x="195.374" y="190.092" stroke-width=".265" font-family="'Caveat',cursive" font-size="10.583" font-weight="400" letter-spacing="0" style="line-height:1.25" transform="translate(25.367 -110.414)" word-spacing="0"><tspan x="195.374" y="190.092">f</tspan></text>
  <text xml:space="preserve" x="-25.925" y="170.314" stroke-width=".265" font-family="'Caveat',cursive" font-size="10.583" font-weight="400" letter-spacing="0" style="line-height:1.25" transform="translate(25.367 -110.414)" word-spacing="0"><tspan x="-25.925" y="170.314">g</tspan></text>
  <path stroke="#000" stroke-width=".028" d="M3.272 15.177c.21-.162.456-.205.478.263-.027.383-.31.296-.37.262-.367-.207-.295-.341-.108-.525zM2.554 46.013c.21-.162.455-.204.478.263-.027.383-.311.296-.37.262-.367-.206-.295-.341-.108-.525zM2.253 68.798c.21-.162.456-.205.478.262-.027.384-.31.297-.37.263-.367-.207-.295-.342-.108-.525zM2.253 84.233c.21-.162.456-.205.478.262-.027.384-.31.296-.37.262-.367-.206-.295-.34-.108-.524zM58.23 89.082c.21-.163.456-.205.479.262-.027.384-.311.296-.37.262-.367-.206-.295-.341-.108-.524zM49.915 89.105c.21-.162.456-.205.478.263-.027.383-.31.296-.37.262-.367-.207-.295-.341-.108-.525zM39.001 88.751c.21-.162.456-.205.478.262-.027.384-.31.297-.37.262-.367-.206-.295-.34-.108-.524zM76.563 63.935c.21-.163.455-.205.478.262-.027.383-.312.296-.37.262-.368-.206-.296-.341-.108-.524zM27.652 88.802c.21-.163.456-.205.478.262-.027.384-.31.296-.37.262-.367-.206-.295-.341-.108-.524zM122.424 64.497c.21-.163.456-.205.478.262-.026.384-.31.296-.37.262-.367-.206-.295-.341-.108-.524zM143.562 65.83c.21-.162.455-.205.478.263-.027.383-.311.296-.37.262-.367-.207-.295-.341-.108-.525zM207.683 3.217c.21-.163.456-.205.478.262-.026.384-.31.296-.37.262-.367-.206-.295-.34-.108-.524zM148.75 3.017c.21-.163.456-.205.478.262-.026.383-.31.296-.37.262-.367-.206-.295-.341-.108-.524zM127.903 1.68c.21-.162.456-.205.478.262-.026.384-.31.297-.37.263-.367-.207-.295-.342-.108-.525zM249.817 18.211c.21-.162.456-.205.478.262-.026.384-.31.297-.37.263-.367-.207-.295-.342-.108-.525zM249.77 30.306c.21-.162.456-.204.478.263-.027.383-.31.296-.37.262-.367-.206-.295-.341-.108-.525zM249.954 46.882c.21-.162.455-.205.478.262-.027.384-.311.297-.37.262-.367-.206-.296-.34-.108-.524zM250.271 54.332c.21-.162.456-.205.478.262-.027.384-.311.297-.37.263-.367-.207-.295-.342-.108-.525zM188.302 66.403c.21-.162.455-.205.478.262-.027.384-.311.297-.37.263-.367-.207-.295-.342-.108-.525zM221.894 91.09c.21-.163.456-.205.478.262-.026.384-.31.296-.37.262-.367-.206-.295-.341-.108-.524zM222.461 83.27c.21-.162.456-.205.478.263-.026.383-.31.296-.37.262-.367-.207-.295-.341-.108-.525zM234.51 107.987c.21-.163.456-.205.479.262-.027.383-.312.296-.37.262-.368-.206-.296-.341-.108-.524zM137.86 108.588c.209-.163.455-.205.477.262-.027.384-.31.296-.37.262-.367-.206-.295-.34-.108-.524zM118.75 108.989c.21-.163.455-.205.477.262-.026.384-.31.296-.37.262-.367-.206-.295-.341-.108-.524zM26.623 108.406c.21-.163.455-.205.477.262-.026.384-.31.296-.37.262-.367-.206-.295-.341-.107-.524zM56.526.578c.21-.163.455-.205.478.262-.027.384-.311.296-.37.262-.367-.206-.296-.341-.108-.524z"/>
</svg>
