<svg xmlns="http://www.w3.org/2000/svg" viewBox="0 0 268.121 156.879">
  <g fill="none" stroke="#000" stroke-width=".265">
    <path fill="#f7fefe" d="m.172 13.116 84.666-2.268c8.05.714 19.62.682 20.033 22.3l3.402 77.486C47.008 94.623 13.481 62.069.172 13.116z"/>
    <path fill="#f7fefe" d="M92.02 3.667c7.553 9.288 20.401 8.648 20.789 31.372l1.134 64.256c-1.9 11.087-.907 22.174-8.316 33.262-11.328 13.7-18.682 15.476-27.214 20.788 40.876-.856 76.044-2.797 105.833.378-15.029-10.092-23.678-24.195-26.08-41.2-3.15-24.946-3.167-42.396-2.646-74.838 1.657-12.767 3.413-25.562-8.693-34.396-5.718-4.423-12.6-3.023-19.277-2.646-2.692.416-5.263.93-3.024 5.292l4.158 5.67c-1.94 9.98-13.29 6.93-13.985-.379 1.883-4.41 5.005-5.795 3.023-8.693-.917-1.829-17.531-1.009-25.702 1.134z"/>
    <path fill="#f7fefe" d="M165.34 26.22c1.158 26.594-1.41 53.196.771 78.96 76.7-37.803 81.477-55.26 100.915-92.513 3.442-5.285-2.876-5.69-10.69-5.346-23.347.714-43.507.848-81.785 4.277-7.968.228-8.22 7.416-9.211 14.621z"/>
  </g>
</svg>
