<svg xmlns="http://www.w3.org/2000/svg" viewBox="0 0 200.518 88.702">
  <path fill="none" stroke="#000" stroke-width=".245" d="M.322 86.276c9.192-.04 18.514-.21 27.24-.833 15.462-.93 52.545.84 58.269.455"/>
  <path fill="none" stroke="#000" stroke-width=".252" d="M100.594 85.897c8.206-.018 16.394-.19 24.548-.092 7.95.095 15.862.469 24.08-.028 10.565-.022 23.748-.046 28.423-.069"/>
  <text xml:space="preserve" x="100.601" y="79.873" stroke-width=".239" font-family="'Caveat',cursive" font-size="9.547" font-weight="400" letter-spacing="0" style="line-height:1.25" transform="scale(.9021 1.10853)" word-spacing="0"><tspan x="100.601" y="79.873">b</tspan></text>
  <path stroke="#000" stroke-width=".104" d="M85.756 85.782c.09-.101.205-.077.303-.057.117.13.014.217-.012.32-.068.172-.146.134-.252.076-.296-.241-.04-.34-.04-.34zM.155 86.044c.09-.102.205-.078.303-.058.117.13.014.218-.012.32-.068.173-.146.134-.252.076-.296-.24-.04-.339-.04-.339zM100.363 85.823c.09-.101.206-.077.303-.057.117.13.015.217-.011.32-.069.172-.146.134-.252.076-.297-.241-.04-.34-.04-.34zM177.515 85.58c.09-.101.205-.077.302-.057.118.13.015.217-.011.32-.068.172-.146.134-.252.076-.297-.242-.039-.34-.039-.34z"/>
  <path stroke="#000" stroke-width=".115" d="M190.432 12.183c.11-.101.252-.077.371-.057.145.13.018.218-.014.32-.083.173-.179.134-.309.076-.364-.241-.048-.34-.048-.34zM192.025 74.2c.11-.102.252-.078.371-.058.145.13.018.218-.014.32-.084.172-.179.134-.309.076-.365-.24-.048-.339-.048-.339z"/>
  <text xml:space="preserve" x="189.293" y="39.706" stroke-width=".265" font-family="'Caveat',cursive" font-size="10.583" font-weight="400" letter-spacing="0" style="line-height:1.25" word-spacing="0"><tspan x="189.293" y="39.706">c</tspan></text>
  <path fill="none" stroke="#000" stroke-width=".169" d="M192.254 30.238c.09-2.126-.317-1.869-.7-4.439-.629-3.783-1.315-8.726-.915-13.289"/>
  <path fill="none" stroke="#000" stroke-width=".205" d="M192.124 44.349c-.447 2.877-1.88 10.256-.384 21.268.644 3.807-.138 2.293.517 7.838l-.068.805"/>
  <path stroke="#000" stroke-width=".115" d="M192.153 30.117c.111-.1.253-.077.372-.057.145.13.018.218-.014.32-.083.173-.179.135-.309.077-.364-.242-.048-.34-.048-.34zm-.208 13.938c.11-.1.252-.077.372-.057.144.13.018.217-.014.32-.084.172-.18.134-.31.076-.364-.24-.048-.339-.048-.339z"/>
  <text xml:space="preserve" x="97.234" y="5.588" stroke-width=".25" font-family="'Caveat',cursive" font-size="10.003" font-weight="400" letter-spacing="0" style="line-height:1.25" transform="scale(.9452 1.05798)" word-spacing="0"><tspan x="97.234" y="5.588">a</tspan></text>
  <path fill="none" stroke="#000" stroke-width=".239" d="M83.675 3.239c-9.9 0-31.751 1.473-41.634.76-13.794-.867-15.636-1.44-29.43-1.029m89.047.535c23.877.099 48.282-1.659 69.114.804"/>
  <path stroke="#000" stroke-width=".104" d="M12.518 2.802c.089-.1.203-.077.3-.057.117.13.016.219-.01.321-.069.174-.146.136-.251.077-.296-.242-.04-.34-.04-.34zm70.956.303c.09-.102.205-.078.302-.058.117.13.014.219-.012.321-.068.174-.145.134-.25.076-.296-.241-.039-.34-.039-.34zm17.977.301c.09-.101.204-.077.3-.057.118.13.016.218-.01.32-.068.173-.145.135-.25.077-.296-.243-.04-.34-.04-.34zm69.144.703c.09-.1.204-.077.3-.057.118.13.015.219-.01.32-.068.174-.146.135-.251.077-.296-.24-.04-.34-.04-.34z"/>
  <path fill="#e78200" stroke="#000" stroke-width=".26" d="M16.333 72.988c13.328-.114 39.3-.343 68.279-.229 28.98.115 61.89.316 77.272.482 14.815.16 16.647 1.48 15.765-1.523-.302-1.029-.31-3.415-.233-12.931.076-9.517.686-27.652.42-37.095-.267-9.444-1.472-12.348-30.433-10.434-27.653 1.828-85.449 3.503-114.543.99C4.314 9.78 3.84 14.683 3.689 24.363c-.153 9.68-.077 27.488-.38 36.97-.153 4.744-.4 7.4-.61 8.943-.21 1.54-.623 1.382-.36 2.274.161.548.665.551 13.994.437z"/>
  <path fill="#e78200" stroke="#000" stroke-width=".26" d="M18.769 70.132s1.6-21.25 1.6-22.164c0-.914.228-29.475.228-29.475 4.418-4.705 9.138-4.89 14.166-.457l-2.352 39.907-.847 12.189c-4.265-.612-8.53-1.177-12.795 0zM36.134 70.132c-.464-13.305 1.117-33.256 2.285-51.867 5.695-4.838 10.36-2.988 14.852 0-.02 21.173-1.76 35.457-2.97 51.867-4.568-.155-8.99-.455-14.167 0z"/>
  <path fill="none" stroke="#000" stroke-width=".26" d="m2.64 70.36 174.472.914.228-.457"/>
  <path fill="#e78200" stroke="#000" stroke-width=".26" d="M3.888 69.604 5.02 38.907l.485-20.68c5.642-5.868 8.814-3.618 11.471.322l.53 10.497.116 14.708-.175 10.523-1.602 15.489c-12.061-2.361-11.58-1.14-11.956-.162ZM54.299 69.675c1.888-17.362 1.187-34.206 1.713-51.296 4.405-2.198 8.738-4.556 16.109-.228l-.6 23.767c-.77 9.048-.692 19.096-1.913 27.643-5.283-1.04-10.329-.66-15.31.114ZM74.863 69.446c1.502-16.904 1.591-34.092 1.6-51.295 8.073-5.145 10.9-1.671 14.965-.229.406 17.336.49 34.564-.914 51.296-4.964-.597-9.808-1.518-15.651.228zM96.912 69.332c-1.082-17.213-.766-34.426-.685-51.638 5.034-2.262 10.198-2.84 15.537-1.143.541 7.242.332 15.277.43 22.164.15 10.577.403 19.844.37 30.274-10.31-1.043-11.48-.009-15.652.343zM117.819 69.218a607.729 607.729 0 0 1-.914-53.124c5.065-2.17 10.13-2.995 15.194-.914.798 17.728.832 35.742-.8 54.38-3.375-.784-7.1-1.36-13.48-.342zM135.984 69.56c-.153-17.745.152-35.948.914-54.608 4.303-3.023 8.606-2.177 12.91-.686l.59 20.907-.82 33.702c-4.34-.92-8.954-.193-13.594.686zM155.177 69.675c-.793-18.553-.806-37.237.228-56.094 4.205-2.894 7.681-.683 11.31.457l-2.399 55.98c-1.903-.623-4.51-.933-9.14-.343zM169.229 69.56l-.412-25.482c-.082-10.945 1.281-20.082 2.354-29.583 2.322-1.553 4.22-2.087 5.027 0l.8 55.18c-1.443-1.056-4.924-.54-7.77-.114z"/>
</svg>
